<svg width="1370" height="285" viewBox="0 0 1370 285" fill="none" xmlns="http://www.w3.org/2000/svg">
<path d="M149.153 16.7969C149.153 11.2535 155.673 8.28179 159.857 11.9182L194.824 42.3132C195.544 40.5907 197.246 39.3804 199.23 39.3804C201.866 39.3805 204.003 41.5175 204.003 44.1537C204.003 45.9006 203.063 47.4268 201.663 48.2587L226.207 69.594C227.619 70.8216 228.43 72.6009 228.43 74.472V180.367C228.43 184.95 228.376 189.343 227.805 193.771C221.17 245.236 177.188 285 123.917 285C79.3497 285 41.2824 257.169 26.1476 217.938C24.1407 212.736 28.2008 207.434 33.777 207.434H52.1314C56.2443 207.434 59.8469 210.064 61.5943 213.787C71.9406 235.835 93.2206 249.651 122.291 249.651C151.284 249.651 177.439 232.176 186.923 205.825C189.97 197.358 184.192 188.093 175.479 185.84C172.925 185.179 170.331 184.736 167.696 184.736H158.503C149.19 184.736 140.404 188.3 133.032 193.992C130.054 196.292 126.319 197.66 122.262 197.66C112.33 197.66 104.309 189.468 104.591 179.472C104.627 178.181 104.809 176.92 105.12 175.707C105.717 173.178 106.881 170.742 108.632 168.595C112.945 163.307 119.678 161.171 125.923 162.475C130.358 163.4 134.925 161.657 137.79 158.145L138.109 157.753C140.472 154.856 141.264 151.068 140.641 147.375C140.197 144.741 140.846 141.939 142.664 139.71C146.074 135.529 152.275 134.983 156.374 138.559C160.214 141.91 160.727 147.907 157.518 151.861C155.64 154.173 152.912 155.377 150.154 155.392C146.392 155.412 142.891 157.337 140.512 160.254L140.45 160.329C139.94 160.955 139.498 161.622 139.126 162.318C137.039 166.232 139.916 170.642 144.029 172.302C148.672 174.176 153.61 175.229 158.703 175.229H167.696C170.244 175.229 172.731 174.897 175.173 174.357C183.65 172.483 188.588 163.429 185.903 155.173C180.016 137.066 168.334 122.12 149.153 114.921V16.7969Z" fill="url(#paint0_linear_557_6962)"/>
<path d="M109.768 214.104C112.618 211.614 116.946 211.914 119.435 214.774C121.923 217.635 121.629 221.973 118.779 224.463C115.928 226.954 111.599 226.653 109.111 223.793C106.623 220.932 106.918 216.595 109.768 214.104Z" fill="url(#paint1_linear_557_6962)"/>
<path d="M63.4743 134.278C67.8385 129.251 75.661 128.589 80.8232 132.802C83.8431 135.267 85.4164 138.846 85.4407 142.461C85.4738 147.392 87.991 151.983 91.801 155.107L91.8979 155.186C96.5434 158.995 102.895 159.894 108.429 157.583C115.213 154.749 123.154 155.253 129.646 159.354C128.64 159.512 127.604 159.493 126.581 159.279C118.906 157.677 111.061 160.455 106.108 166.528C101.901 171.686 100.389 178.625 102.062 185.088C103.261 189.718 106.045 193.845 109.903 196.707C113.976 199.729 119.043 201.147 124.17 200.701C124.822 200.644 125.467 200.557 126.105 200.442C118.52 203.529 109.527 202.471 102.737 196.903C95.831 191.241 93.0327 182.415 94.7222 174.232C95.9221 168.42 93.641 162.431 89.0542 158.67L88.5418 158.25C84.7583 155.148 79.8165 154.104 75.0002 154.914C71.5658 155.491 67.9093 154.637 64.9985 152.251C59.5388 147.774 58.8158 139.645 63.4743 134.278Z" fill="url(#paint2_linear_557_6962)"/>
<path d="M67.17 170.32C71.1549 167.585 76.6015 168.609 79.3355 172.607C82.0694 176.605 81.0558 182.063 77.0709 184.798C73.086 187.534 67.6387 186.51 64.9047 182.511C62.171 178.514 63.1855 173.056 67.17 170.32Z" fill="url(#paint3_linear_557_6962)"/>
<path d="M117.609 132.666C120.588 129.779 125.342 129.862 128.226 132.853C131.11 135.843 131.033 140.607 128.054 143.495C125.075 146.382 120.321 146.298 117.437 143.308C114.553 140.318 114.63 135.553 117.609 132.666Z" fill="url(#paint4_linear_557_6962)"/>
<path d="M188.49 13.7238C192.444 13.7238 195.65 16.9298 195.65 20.8841C195.65 24.8383 192.444 28.0437 188.49 28.0437C184.536 28.0436 181.33 24.8382 181.33 20.8841C181.33 16.9298 184.536 13.7238 188.49 13.7238Z" fill="url(#paint5_linear_557_6962)"/>
<path d="M209.969 0C214.912 0.000172659 218.919 4.00698 218.919 8.94967C218.919 13.8925 214.912 17.8999 209.969 17.9001C205.026 17.9001 201.019 13.8926 201.019 8.94967C201.019 4.00687 205.026 0 209.969 0Z" fill="url(#paint6_linear_557_6962)"/>
<path d="M339.987 71.92C341.613 71.6244 344.199 71.255 347.745 70.8117C351.292 70.2206 354.691 69.925 357.942 69.925C361.341 69.925 364.296 70.2206 366.809 70.8117C369.469 71.255 371.685 72.1417 373.459 73.4717C375.232 74.8017 376.562 76.6489 377.449 79.0133C378.335 81.3778 378.779 84.4811 378.779 88.3233V170.34C378.779 183.492 375.01 193.393 367.474 200.043C359.937 206.546 348.854 209.797 334.224 209.797C326.539 209.797 320.333 208.614 315.604 206.25C312.205 204.624 309.693 202.408 308.067 199.6C306.589 196.792 305.85 193.615 305.85 190.068C305.85 187.113 306.22 184.527 306.959 182.31C307.845 180.093 308.88 178.32 310.062 176.99C312.87 177.581 315.234 178.024 317.155 178.32C319.224 178.468 321.441 178.542 323.805 178.542C329.569 178.542 333.706 177.138 336.219 174.33C338.731 171.374 339.987 167.089 339.987 161.473V71.92ZM506.705 152.385C506.705 161.547 505.301 169.749 502.493 176.99C499.685 184.083 495.695 190.068 490.523 194.945C485.498 199.822 479.44 203.516 472.346 206.028C465.253 208.541 457.347 209.797 448.628 209.797C439.909 209.797 432.003 208.467 424.91 205.807C417.816 203.147 411.683 199.378 406.511 194.502C401.487 189.477 397.571 183.418 394.763 176.325C391.955 169.232 390.551 161.252 390.551 152.385C390.551 143.666 391.955 135.76 394.763 128.667C397.571 121.573 401.487 115.588 406.511 110.712C411.683 105.687 417.816 101.845 424.91 99.185C432.003 96.525 439.909 95.195 448.628 95.195C457.347 95.195 465.253 96.5989 472.346 99.4067C479.44 102.067 485.498 105.909 490.523 110.933C495.695 115.81 499.685 121.795 502.493 128.888C505.301 135.982 506.705 143.814 506.705 152.385ZM429.121 152.385C429.121 161.399 430.821 168.345 434.22 173.222C437.766 177.951 442.643 180.315 448.85 180.315C455.056 180.315 459.785 177.877 463.036 173C466.435 168.123 468.135 161.252 468.135 152.385C468.135 143.518 466.435 136.721 463.036 131.992C459.637 127.115 454.835 124.677 448.628 124.677C442.421 124.677 437.618 127.115 434.22 131.992C430.821 136.721 429.121 143.518 429.121 152.385ZM516.666 61.945C518.143 61.5017 520.508 61.0583 523.759 60.615C527.01 60.0239 530.335 59.7283 533.734 59.7283C536.985 59.7283 539.867 59.95 542.379 60.3933C545.039 60.8367 547.256 61.7233 549.029 63.0533C550.802 64.3833 552.132 66.2305 553.019 68.595C553.906 70.8117 554.349 73.7672 554.349 77.4617V99.185C558.043 97.7072 561.516 96.6728 564.767 96.0817C568.166 95.4905 571.861 95.195 575.851 95.195C582.944 95.195 589.668 96.4511 596.022 98.9633C602.377 101.476 607.992 105.17 612.869 110.047C617.746 114.776 621.588 120.687 624.396 127.78C627.203 134.873 628.607 143.075 628.607 152.385C628.607 161.991 627.13 170.414 624.174 177.655C621.366 184.748 617.376 190.659 612.204 195.388C607.032 200.117 600.677 203.738 593.141 206.25C585.752 208.614 577.55 209.797 568.536 209.797C558.782 209.797 550.507 208.614 543.709 206.25C536.911 204.033 531.148 201.226 526.419 197.827C519.917 193.246 516.666 187.334 516.666 180.093V61.945ZM568.536 180.093C575.333 180.093 580.58 177.803 584.274 173.222C588.116 168.493 590.037 161.547 590.037 152.385C590.037 143.075 588.116 136.129 584.274 131.548C580.432 126.967 575.26 124.677 568.757 124.677C565.802 124.677 563.216 124.972 560.999 125.563C558.93 126.154 556.64 127.041 554.127 128.223V176.547C555.753 177.581 557.674 178.468 559.891 179.207C562.255 179.798 565.137 180.093 568.536 180.093ZM744.726 86.3283C744.726 88.2494 744.061 90.0228 742.731 91.6483C741.549 93.1261 740.145 94.2344 738.519 94.9733C734.825 92.3133 730.318 89.8011 724.998 87.4367C719.826 85.0722 713.102 83.89 704.826 83.89C695.812 83.89 687.684 85.9589 680.443 90.0967C673.349 94.2344 667.66 100.441 663.374 108.717C659.237 116.844 657.168 126.967 657.168 139.085C657.168 157.262 661.601 170.931 670.468 180.093C679.482 189.256 691.157 193.837 705.491 193.837C713.176 193.837 719.899 192.728 725.663 190.512C731.426 188.295 736.155 185.783 739.849 182.975C741.327 183.566 742.731 184.674 744.061 186.3C745.391 187.778 746.056 189.551 746.056 191.62C746.056 193.098 745.613 194.576 744.726 196.053C743.987 197.383 742.657 198.713 740.736 200.043C737.337 202.408 732.682 204.477 726.771 206.25C720.86 208.171 713.323 209.132 704.161 209.132C691.896 209.132 680.738 206.546 670.689 201.373C660.788 196.053 652.956 188.221 647.193 177.877C641.429 167.532 638.548 154.602 638.548 139.085C638.548 123.568 641.503 110.564 647.414 100.072C653.473 89.5794 661.379 81.7472 671.133 76.575C681.034 71.255 691.822 68.595 703.496 68.595C711.624 68.595 718.791 69.4817 724.998 71.255C731.204 73.0283 736.007 75.3189 739.406 78.1267C742.953 80.7867 744.726 83.5206 744.726 86.3283ZM853.54 162.138H835.807V141.745C835.807 132.878 833.295 126.302 828.27 122.017C823.394 117.731 817.039 115.588 809.207 115.588C803.444 115.588 798.05 116.697 793.025 118.913C788.149 121.13 784.011 123.79 780.612 126.893L777.287 112.485C780.834 109.973 785.489 107.461 791.252 104.948C797.163 102.288 803.961 100.958 811.645 100.958C823.911 100.958 833.96 104.283 841.792 110.933C849.624 117.583 853.54 127.706 853.54 141.302V162.138ZM765.095 147.73H782.829V205.807C782.09 206.102 780.981 206.398 779.504 206.693C778.026 207.137 776.4 207.358 774.627 207.358C771.524 207.358 769.159 206.767 767.534 205.585C765.908 204.255 765.095 202.186 765.095 199.378V147.73ZM835.807 147.952L853.54 148.173V205.807C852.801 206.102 851.619 206.398 849.994 206.693C848.516 207.137 846.964 207.358 845.339 207.358C842.087 207.358 839.649 206.767 838.024 205.585C836.546 204.255 835.807 202.186 835.807 199.378V147.952ZM782.829 156.375H765.095V62.61C765.834 62.3144 766.942 62.0189 768.42 61.7233C770.046 61.28 771.745 61.0583 773.519 61.0583C776.622 61.0583 778.912 61.7233 780.39 63.0533C782.016 64.2355 782.829 66.2305 782.829 69.0383V156.375ZM884.303 166.35L883.417 152.385L950.36 143.297C949.769 135.169 946.961 128.519 941.937 123.347C936.912 118.027 929.967 115.367 921.1 115.367C911.938 115.367 904.327 118.692 898.268 125.342C892.357 131.844 889.402 141.228 889.402 153.493V158.37C890.436 170.192 894.278 179.207 900.928 185.413C907.726 191.472 916.962 194.502 928.637 194.502C934.843 194.502 940.459 193.467 945.483 191.398C950.508 189.329 954.498 187.113 957.453 184.748C959.079 185.783 960.335 187.039 961.222 188.517C962.256 189.847 962.773 191.398 962.773 193.172C962.773 195.979 961.148 198.639 957.897 201.152C954.793 203.516 950.582 205.437 945.262 206.915C940.089 208.393 934.252 209.132 927.75 209.132C916.371 209.132 906.47 207.063 898.047 202.925C889.771 198.787 883.343 192.654 878.762 184.527C874.328 176.251 872.112 166.202 872.112 154.38C872.112 145.957 873.294 138.494 875.658 131.992C878.171 125.342 881.569 119.726 885.855 115.145C890.288 110.564 895.534 107.091 901.593 104.727C907.652 102.214 914.228 100.958 921.322 100.958C930.336 100.958 938.242 102.879 945.04 106.722C951.986 110.564 957.379 115.958 961.222 122.903C965.212 129.701 967.207 137.533 967.207 146.4C967.207 149.651 966.468 152.016 964.99 153.493C963.512 154.823 961.443 155.636 958.783 155.932L884.303 166.35ZM1066.64 135.317V160.808H1048.9V136.647C1048.9 129.406 1046.76 124.086 1042.47 120.687C1038.34 117.288 1032.8 115.588 1025.85 115.588C1021.27 115.588 1016.84 116.327 1012.55 117.805C1008.26 119.283 1004.64 120.982 1001.69 122.903V160.808H983.955V123.79C983.955 120.834 984.546 118.322 985.728 116.253C987.058 114.184 989.275 112.189 992.378 110.268C996.368 107.756 1001.39 105.613 1007.45 103.84C1013.66 101.919 1019.86 100.958 1026.07 100.958C1033.61 100.958 1040.26 102.141 1046.02 104.505C1051.78 106.722 1056.07 109.825 1058.88 113.815C1059.76 114.702 1060.5 115.514 1061.09 116.253C1061.69 116.992 1062.28 117.953 1062.87 119.135C1063.9 120.908 1064.79 123.199 1065.53 126.007C1066.27 128.814 1066.64 131.918 1066.64 135.317ZM1131.58 135.76V160.808H1113.85V136.647C1113.85 129.406 1111.78 124.086 1107.64 120.687C1103.51 117.288 1097.97 115.588 1091.02 115.588C1085.85 115.588 1080.82 116.697 1075.95 118.913C1071.22 120.982 1066.93 124.012 1063.09 128.002L1056 115.145C1059.84 111.303 1064.86 107.978 1071.07 105.17C1077.28 102.362 1084.37 100.958 1092.35 100.958C1100.33 100.958 1107.2 102.214 1112.96 104.727C1118.88 107.239 1123.46 111.081 1126.71 116.253C1129.96 121.426 1131.58 127.928 1131.58 135.76ZM983.955 149.06H1001.69V205.807C1000.95 206.102 999.841 206.398 998.363 206.693C996.885 207.137 995.26 207.358 993.486 207.358C990.383 207.358 988.019 206.767 986.393 205.585C984.767 204.255 983.955 202.186 983.955 199.378V149.06ZM1048.9 149.06H1066.64V205.807C1065.9 206.102 1064.72 206.398 1063.09 206.693C1061.61 207.137 1060.06 207.358 1058.43 207.358C1055.18 207.358 1052.75 206.767 1051.12 205.585C1049.64 204.255 1048.9 202.186 1048.9 199.378V149.06ZM1113.85 149.06H1131.58V205.807C1130.85 206.102 1129.66 206.398 1128.04 206.693C1126.56 207.137 1125.01 207.358 1123.38 207.358C1120.13 207.358 1117.69 206.767 1116.07 205.585C1114.59 204.255 1113.85 202.186 1113.85 199.378V149.06ZM1154.51 71.4767C1154.51 68.3733 1155.61 65.7872 1157.83 63.7183C1160.05 61.5017 1162.78 60.3933 1166.03 60.3933C1169.43 60.3933 1172.17 61.5017 1174.23 63.7183C1176.3 65.7872 1177.34 68.3733 1177.34 71.4767C1177.34 74.58 1176.3 77.24 1174.23 79.4567C1172.17 81.5255 1169.43 82.56 1166.03 82.56C1162.78 82.56 1160.05 81.5255 1157.83 79.4567C1155.61 77.24 1154.51 74.58 1154.51 71.4767ZM1157.17 147.73H1174.9V205.807C1174.16 206.102 1173.05 206.398 1171.57 206.693C1170.1 207.137 1168.47 207.358 1166.7 207.358C1163.59 207.358 1161.23 206.767 1159.6 205.585C1157.98 204.255 1157.17 202.186 1157.17 199.378V147.73ZM1174.9 156.375H1157.17V104.283C1157.91 103.988 1159.01 103.692 1160.49 103.397C1162.12 102.953 1163.82 102.732 1165.59 102.732C1168.69 102.732 1170.98 103.397 1172.46 104.727C1174.09 105.909 1174.9 107.978 1174.9 110.933V156.375ZM1272.92 178.985C1272.92 188.443 1269.45 195.832 1262.5 201.152C1255.56 206.472 1245.51 209.132 1232.36 209.132C1221.13 209.132 1211.96 207.432 1204.87 204.033C1197.78 200.487 1194.23 196.644 1194.23 192.507C1194.23 190.733 1194.67 189.034 1195.56 187.408C1196.6 185.635 1198.07 184.231 1199.99 183.197C1203.98 186.004 1208.64 188.591 1213.96 190.955C1219.28 193.319 1225.34 194.502 1232.14 194.502C1247.51 194.502 1255.19 189.329 1255.19 178.985C1255.19 174.699 1253.86 171.227 1251.2 168.567C1248.69 165.759 1244.92 163.764 1239.89 162.582L1221.5 157.705C1212.48 155.488 1205.91 152.089 1201.77 147.508C1197.63 142.779 1195.56 136.942 1195.56 129.997C1195.56 122.164 1198.74 115.367 1205.09 109.603C1211.45 103.84 1221.13 100.958 1234.13 100.958C1241.08 100.958 1247.14 101.697 1252.31 103.175C1257.48 104.505 1261.47 106.352 1264.28 108.717C1267.23 110.933 1268.71 113.372 1268.71 116.032C1268.71 117.953 1268.19 119.652 1267.16 121.13C1266.27 122.608 1265.02 123.716 1263.39 124.455C1261.62 123.273 1259.33 122.017 1256.52 120.687C1253.86 119.209 1250.68 118.027 1246.99 117.14C1243.29 116.106 1239.23 115.588 1234.8 115.588C1228.29 115.588 1223.05 116.844 1219.06 119.357C1215.07 121.869 1213.07 125.416 1213.07 129.997C1213.07 133.248 1214.18 136.129 1216.4 138.642C1218.76 141.006 1222.46 142.779 1227.48 143.962L1242.78 147.73C1252.83 150.094 1260.36 153.863 1265.39 159.035C1270.41 164.059 1272.92 170.709 1272.92 178.985ZM1291.16 147.73H1308.89V178.32C1308.89 184.231 1310.59 188.443 1313.99 190.955C1317.39 193.319 1322.04 194.502 1327.96 194.502C1330.47 194.502 1333.28 194.058 1336.38 193.172C1339.48 192.285 1342.07 191.251 1344.14 190.068C1345.02 190.955 1345.84 192.063 1346.58 193.393C1347.31 194.723 1347.68 196.275 1347.68 198.048C1347.68 201.299 1345.76 203.959 1341.92 206.028C1338.08 208.097 1332.76 209.132 1325.96 209.132C1315.62 209.132 1307.19 206.841 1300.69 202.26C1294.34 197.679 1291.16 190.068 1291.16 179.428V147.73ZM1300.25 120.687V106.057H1345.25C1345.69 106.648 1346.13 107.608 1346.58 108.938C1347.02 110.268 1347.24 111.672 1347.24 113.15C1347.24 115.514 1346.65 117.362 1345.47 118.692C1344.28 120.022 1342.66 120.687 1340.59 120.687H1300.25ZM1308.89 154.38H1291.16V74.1367C1291.9 73.8411 1293.01 73.5455 1294.48 73.25C1296.11 72.8067 1297.81 72.585 1299.58 72.585C1302.69 72.585 1304.98 73.25 1306.45 74.58C1308.08 75.7622 1308.89 77.7572 1308.89 80.565V154.38Z" fill="white"/>
<defs>
<linearGradient id="paint0_linear_557_6962" x1="145.775" y1="-17.9622" x2="3.95938" y2="253.048" gradientUnits="userSpaceOnUse">
<stop stop-color="#DBFF4D"/>
<stop offset="1" stop-color="#87A800"/>
</linearGradient>
<linearGradient id="paint1_linear_557_6962" x1="145.775" y1="-17.9622" x2="3.95938" y2="253.048" gradientUnits="userSpaceOnUse">
<stop stop-color="#DBFF4D"/>
<stop offset="1" stop-color="#87A800"/>
</linearGradient>
<linearGradient id="paint2_linear_557_6962" x1="145.775" y1="-17.9622" x2="3.95938" y2="253.048" gradientUnits="userSpaceOnUse">
<stop stop-color="#DBFF4D"/>
<stop offset="1" stop-color="#87A800"/>
</linearGradient>
<linearGradient id="paint3_linear_557_6962" x1="145.775" y1="-17.9622" x2="3.95938" y2="253.048" gradientUnits="userSpaceOnUse">
<stop stop-color="#DBFF4D"/>
<stop offset="1" stop-color="#87A800"/>
</linearGradient>
<linearGradient id="paint4_linear_557_6962" x1="145.775" y1="-17.9622" x2="3.95938" y2="253.048" gradientUnits="userSpaceOnUse">
<stop stop-color="#DBFF4D"/>
<stop offset="1" stop-color="#87A800"/>
</linearGradient>
<linearGradient id="paint5_linear_557_6962" x1="145.775" y1="-17.9622" x2="3.95938" y2="253.048" gradientUnits="userSpaceOnUse">
<stop stop-color="#DBFF4D"/>
<stop offset="1" stop-color="#87A800"/>
</linearGradient>
<linearGradient id="paint6_linear_557_6962" x1="145.775" y1="-17.9622" x2="3.95938" y2="253.048" gradientUnits="userSpaceOnUse">
<stop stop-color="#DBFF4D"/>
<stop offset="1" stop-color="#87A800"/>
</linearGradient>
</defs>
</svg>
