<svg width="204" height="286" viewBox="0 0 204 286" fill="none" xmlns="http://www.w3.org/2000/svg">
<path d="M123.695 16.82C123.695 11.269 130.225 8.29316 134.414 11.9345L169.429 42.3713C170.15 40.6464 171.854 39.4345 173.841 39.4345C176.481 39.4346 178.621 41.5746 178.621 44.2143C178.621 45.9636 177.68 47.4919 176.278 48.325L200.856 69.6896C202.27 70.9188 203.081 72.7006 203.081 74.5743V180.615C203.081 185.204 203.028 189.603 202.456 194.037C195.812 245.573 151.77 285.391 98.4251 285.391C53.7965 285.391 15.677 257.522 0.521391 218.237C-1.48825 213.028 2.57742 207.719 8.16125 207.719H26.5409C30.6594 207.719 34.2669 210.352 36.0167 214.081C46.3772 236.158 67.6864 249.994 96.7964 249.994C125.829 249.994 152.02 232.495 161.517 206.108C164.569 197.629 158.782 188.351 150.058 186.095C147.5 185.433 144.903 184.989 142.264 184.989H133.058C123.733 184.989 114.935 188.558 107.552 194.258C104.57 196.561 100.831 197.931 96.7677 197.932C86.8221 197.932 78.7904 189.728 79.072 179.718C79.1084 178.426 79.2908 177.163 79.6022 175.948C80.2004 173.416 81.3659 170.977 83.119 168.827C87.4383 163.531 94.1797 161.392 100.434 162.698C104.875 163.625 109.448 161.879 112.317 158.362L112.637 157.97C115.003 155.069 115.796 151.276 115.172 147.577C114.728 144.94 115.377 142.134 117.198 139.902C120.612 135.715 126.822 135.168 130.927 138.75C134.772 142.105 135.286 148.11 132.072 152.069C130.192 154.385 127.46 155.59 124.698 155.605C120.93 155.626 117.425 157.553 115.042 160.474L114.981 160.549C114.47 161.176 114.027 161.843 113.655 162.541C111.565 166.46 114.446 170.876 118.565 172.539C123.214 174.415 128.159 175.469 133.259 175.469H142.264C144.816 175.469 147.306 175.137 149.751 174.597C158.24 172.72 163.185 163.654 160.497 155.386C154.601 137.254 142.903 122.287 123.695 115.079V16.82Z" fill="url(#paint0_linear_557_6957)"/>
<path d="M84.2563 214.398C87.1108 211.904 91.4447 212.205 93.9364 215.069C96.4279 217.934 96.1339 222.278 93.2796 224.772C90.4251 227.265 86.0904 226.965 83.5988 224.1C81.1074 221.236 81.4022 216.892 84.2563 214.398Z" fill="url(#paint1_linear_557_6957)"/>
<path d="M37.8993 134.463C42.2695 129.429 50.1028 128.766 55.2721 132.985C58.2961 135.453 59.8716 139.036 59.8959 142.657C59.929 147.594 62.4497 152.191 66.2649 155.32L66.3619 155.4C71.0138 159.213 77.3745 160.114 82.9156 157.799C89.709 154.961 97.6611 155.466 104.162 159.573C103.154 159.731 102.117 159.711 101.093 159.498C93.4072 157.894 85.5513 160.675 80.5913 166.756C76.3786 171.922 74.8643 178.87 76.5396 185.342C77.7401 189.979 80.5286 194.111 84.3922 196.977C88.4708 200.003 93.5447 201.423 98.6782 200.976C99.331 200.919 99.9775 200.832 100.616 200.717C93.0207 203.808 84.0154 202.749 77.2158 197.174C70.3004 191.504 67.4983 182.665 69.1901 174.471C70.3917 168.651 68.1075 162.654 63.5144 158.888L63.0012 158.468C59.2126 155.361 54.264 154.315 49.441 155.126C46.002 155.704 42.3404 154.849 39.4256 152.46C33.9584 147.977 33.2344 139.837 37.8993 134.463Z" fill="url(#paint2_linear_557_6957)"/>
<path d="M41.6001 170.554C45.5905 167.815 51.0445 168.84 53.7823 172.844C56.5199 176.847 55.505 182.313 51.5146 185.052C47.5242 187.791 42.0694 186.766 39.3317 182.762C36.5943 178.759 37.6101 173.293 41.6001 170.554Z" fill="url(#paint3_linear_557_6957)"/>
<path d="M92.1081 132.848C95.0916 129.957 99.8517 130.041 102.74 133.035C105.628 136.029 105.551 140.801 102.568 143.692C99.5842 146.583 94.824 146.499 91.9358 143.505C89.0478 140.51 89.1249 135.739 92.1081 132.848Z" fill="url(#paint4_linear_557_6957)"/>
<path d="M163.086 13.7426C167.046 13.7426 170.257 16.953 170.257 20.9128C170.256 24.8724 167.046 28.0822 163.086 28.0822C159.127 28.0821 155.917 24.8723 155.917 20.9128C155.917 16.9531 159.127 13.7427 163.086 13.7426Z" fill="url(#paint5_linear_557_6957)"/>
<path d="M184.595 0C189.545 0.000172897 193.557 4.01248 193.557 8.96195C193.557 13.9116 189.545 17.9245 184.595 17.9247C179.646 17.9247 175.633 13.9117 175.633 8.96195C175.633 4.01237 179.646 0 184.595 0Z" fill="url(#paint6_linear_557_6957)"/>
<defs>
<linearGradient id="paint0_linear_557_6957" x1="120.313" y1="-17.9868" x2="-21.6973" y2="253.395" gradientUnits="userSpaceOnUse">
<stop stop-color="#DBFF4D"/>
<stop offset="1" stop-color="#87A800"/>
</linearGradient>
<linearGradient id="paint1_linear_557_6957" x1="120.313" y1="-17.9868" x2="-21.6973" y2="253.395" gradientUnits="userSpaceOnUse">
<stop stop-color="#DBFF4D"/>
<stop offset="1" stop-color="#87A800"/>
</linearGradient>
<linearGradient id="paint2_linear_557_6957" x1="120.313" y1="-17.9868" x2="-21.6973" y2="253.395" gradientUnits="userSpaceOnUse">
<stop stop-color="#DBFF4D"/>
<stop offset="1" stop-color="#87A800"/>
</linearGradient>
<linearGradient id="paint3_linear_557_6957" x1="120.313" y1="-17.9868" x2="-21.6973" y2="253.395" gradientUnits="userSpaceOnUse">
<stop stop-color="#DBFF4D"/>
<stop offset="1" stop-color="#87A800"/>
</linearGradient>
<linearGradient id="paint4_linear_557_6957" x1="120.313" y1="-17.9868" x2="-21.6973" y2="253.395" gradientUnits="userSpaceOnUse">
<stop stop-color="#DBFF4D"/>
<stop offset="1" stop-color="#87A800"/>
</linearGradient>
<linearGradient id="paint5_linear_557_6957" x1="120.313" y1="-17.9868" x2="-21.6973" y2="253.395" gradientUnits="userSpaceOnUse">
<stop stop-color="#DBFF4D"/>
<stop offset="1" stop-color="#87A800"/>
</linearGradient>
<linearGradient id="paint6_linear_557_6957" x1="120.313" y1="-17.9868" x2="-21.6973" y2="253.395" gradientUnits="userSpaceOnUse">
<stop stop-color="#DBFF4D"/>
<stop offset="1" stop-color="#87A800"/>
</linearGradient>
</defs>
</svg>
