<svg width="204" height="286" viewBox="0 0 204 286" fill="none" xmlns="http://www.w3.org/2000/svg">
<path d="M123.695 17.2106C123.695 11.6596 130.225 8.68379 134.414 12.3251L169.429 42.7619C170.15 41.037 171.854 39.8251 173.841 39.8251C176.481 39.8252 178.621 41.9652 178.621 44.6049C178.621 46.3542 177.68 47.8825 176.278 48.7156L200.856 70.0802C202.27 71.3095 203.081 73.0912 203.081 74.9649V181.005C203.081 185.595 203.028 189.993 202.456 194.427C195.812 245.963 151.77 285.782 98.4251 285.782C53.7965 285.782 15.677 257.912 0.521391 218.628C-1.48825 213.418 2.57742 208.109 8.16125 208.109H26.5409C30.6594 208.109 34.2669 210.743 36.0167 214.471C46.3772 236.549 67.6864 250.384 96.7964 250.384C125.829 250.384 152.02 232.886 161.517 206.498C164.569 198.02 158.782 188.742 150.058 186.485C147.5 185.824 144.903 185.38 142.264 185.38H133.058C123.733 185.38 114.935 188.949 107.552 194.649C104.57 196.952 100.831 198.322 96.7677 198.322C86.8221 198.322 78.7904 190.119 79.072 180.109C79.1084 178.816 79.2908 177.554 79.6022 176.339C80.2004 173.806 81.3659 171.367 83.119 169.218C87.4383 163.922 94.1797 161.783 100.434 163.088C104.875 164.015 109.448 162.27 112.317 158.753L112.637 158.361C115.003 155.459 115.796 151.666 115.172 147.968C114.728 145.331 115.377 142.525 117.198 140.292C120.612 136.106 126.822 135.559 130.927 139.14C134.772 142.496 135.286 148.501 132.072 152.46C130.192 154.776 127.46 155.981 124.698 155.996C120.93 156.016 117.425 157.943 115.042 160.865L114.981 160.94C114.47 161.566 114.027 162.234 113.655 162.932C111.565 166.851 114.446 171.266 118.565 172.929C123.214 174.806 128.159 175.86 133.259 175.86H142.264C144.816 175.86 147.306 175.528 149.751 174.987C158.24 173.111 163.185 164.044 160.497 155.777C154.601 137.645 142.903 122.678 123.695 115.47V17.2106Z" fill="black"/>
<path d="M84.2563 214.789C87.1108 212.295 91.4447 212.595 93.9364 215.46C96.4279 218.324 96.1339 222.668 93.2796 225.162C90.4251 227.656 86.0904 227.355 83.5988 224.491C81.1074 221.626 81.4022 217.283 84.2563 214.789Z" fill="black"/>
<path d="M37.8993 134.853C42.2695 129.819 50.1028 129.156 55.2721 133.375C58.2961 135.844 59.8716 139.427 59.8959 143.047C59.929 147.985 62.4497 152.582 66.2649 155.71L66.3619 155.79C71.0138 159.604 77.3745 160.505 82.9156 158.19C89.709 155.352 97.6611 155.857 104.162 159.964C103.154 160.122 102.117 160.102 101.093 159.888C93.4072 158.284 85.5513 161.066 80.5913 167.147C76.3786 172.313 74.8643 179.261 76.5396 185.732C77.7401 190.369 80.5286 194.502 84.3922 197.368C88.4708 200.394 93.5447 201.814 98.6782 201.367C99.331 201.31 99.9775 201.223 100.616 201.108C93.0207 204.199 84.0154 203.139 77.2158 197.564C70.3004 191.894 67.4983 183.056 69.1901 174.861C70.3917 169.042 68.1075 163.044 63.5144 159.278L63.0012 158.858C59.2126 155.752 54.264 154.706 49.441 155.517C46.002 156.095 42.3404 155.24 39.4256 152.85C33.9584 148.367 33.2344 140.227 37.8993 134.853Z" fill="black"/>
<path d="M41.6001 170.945C45.5905 168.206 51.0445 169.231 53.7823 173.234C56.5199 177.238 55.505 182.704 51.5146 185.443C47.5242 188.182 42.0694 187.156 39.3317 183.153C36.5943 179.149 37.6101 173.684 41.6001 170.945Z" fill="black"/>
<path d="M92.1081 133.239C95.0916 130.347 99.8517 130.431 102.74 133.426C105.628 136.42 105.551 141.191 102.568 144.082C99.5842 146.973 94.824 146.89 91.9358 143.895C89.0478 140.901 89.1249 136.13 92.1081 133.239Z" fill="black"/>
<path d="M163.086 14.1332C167.046 14.1332 170.257 17.3436 170.257 21.3034C170.256 25.263 167.046 28.4728 163.086 28.4728C159.127 28.4727 155.917 25.263 155.917 21.3034C155.917 17.3437 159.127 14.1333 163.086 14.1332Z" fill="black"/>
<path d="M184.595 0.390625C189.545 0.390798 193.557 4.40311 193.557 9.35258C193.557 14.3022 189.545 18.3151 184.595 18.3153C179.646 18.3153 175.633 14.3023 175.633 9.35258C175.633 4.403 179.646 0.390625 184.595 0.390625Z" fill="black"/>
</svg>
