<svg width="412" height="287" viewBox="0 0 412 287" fill="none" xmlns="http://www.w3.org/2000/svg">
<path d="M16.0297 233.171C16.6618 233.056 17.6675 232.912 19.0466 232.74C20.4258 232.51 21.7474 232.395 23.0117 232.395C24.3333 232.395 25.4826 232.51 26.4595 232.74C27.4939 232.912 28.3559 233.257 29.0454 233.774C29.735 234.292 30.2522 235.01 30.597 235.929C30.9418 236.849 31.1141 238.056 31.1141 239.55V271.442C31.1141 276.557 29.6488 280.407 26.7181 282.993C23.7874 285.521 19.4776 286.785 13.7886 286.785C10.8005 286.785 8.38696 286.326 6.5481 285.406C5.22641 284.774 4.24952 283.912 3.61741 282.82C3.04276 281.729 2.75544 280.493 2.75544 279.114C2.75544 277.965 2.8991 276.959 3.18643 276.097C3.53121 275.235 3.93346 274.545 4.39318 274.028C5.485 274.258 6.40444 274.431 7.15147 274.545C7.95598 274.603 8.81794 274.632 9.73737 274.632C11.9785 274.632 13.5875 274.086 14.5644 272.994C15.5413 271.845 16.0297 270.178 16.0297 267.995V233.171ZM80.8591 264.46C80.8591 268.023 80.3131 271.213 79.2213 274.028C78.1295 276.787 76.578 279.114 74.5667 281.01C72.6129 282.907 70.2569 284.343 67.4986 285.32C64.7403 286.297 61.6659 286.785 58.2755 286.785C54.8851 286.785 51.8108 286.268 49.0525 285.234C46.2942 284.199 43.9094 282.734 41.8982 280.838C39.9444 278.884 38.4216 276.528 37.3297 273.77C36.2379 271.011 35.692 267.908 35.692 264.46C35.692 261.07 36.2379 257.996 37.3297 255.237C38.4216 252.479 39.9444 250.152 41.8982 248.255C43.9094 246.302 46.2942 244.808 49.0525 243.773C51.8108 242.739 54.8851 242.222 58.2755 242.222C61.6659 242.222 64.7403 242.768 67.4986 243.859C70.2569 244.894 72.6129 246.388 74.5667 248.342C76.578 250.238 78.1295 252.565 79.2213 255.324C80.3131 258.082 80.8591 261.128 80.8591 264.46ZM50.6902 264.46C50.6902 267.966 51.3511 270.667 52.6727 272.563C54.0519 274.402 55.9482 275.321 58.3617 275.321C60.7752 275.321 62.6141 274.373 63.8783 272.477C65.2 270.58 65.8608 267.908 65.8608 264.46C65.8608 261.013 65.2 258.369 63.8783 256.53C62.5566 254.634 60.689 253.686 58.2755 253.686C55.862 253.686 53.9944 254.634 52.6727 256.53C51.3511 258.369 50.6902 261.013 50.6902 264.46ZM84.7325 229.292C85.3072 229.12 86.2266 228.947 87.4908 228.775C88.755 228.545 90.048 228.43 91.3697 228.43C92.6339 228.43 93.7544 228.516 94.7313 228.689C95.7657 228.861 96.6277 229.206 97.3172 229.723C98.0068 230.24 98.524 230.959 98.8688 231.878C99.2136 232.74 99.386 233.889 99.386 235.326V243.773C100.823 243.199 102.173 242.796 103.437 242.567C104.759 242.337 106.195 242.222 107.747 242.222C110.505 242.222 113.12 242.71 115.591 243.687C118.062 244.664 120.246 246.101 122.142 247.997C124.038 249.836 125.532 252.134 126.624 254.893C127.716 257.651 128.262 260.84 128.262 264.46C128.262 268.196 127.687 271.471 126.538 274.287C125.446 277.045 123.895 279.344 121.883 281.183C119.872 283.021 117.401 284.429 114.47 285.406C111.597 286.326 108.408 286.785 104.903 286.785C101.11 286.785 97.8919 286.326 95.2485 285.406C92.6051 284.544 90.364 283.452 88.5252 282.131C85.9967 280.349 84.7325 278.051 84.7325 275.235V229.292ZM104.903 275.235C107.546 275.235 109.586 274.344 111.023 272.563C112.517 270.724 113.264 268.023 113.264 264.46C113.264 260.84 112.517 258.139 111.023 256.358C109.528 254.577 107.517 253.686 104.989 253.686C103.839 253.686 102.834 253.801 101.972 254.031C101.167 254.261 100.277 254.605 99.2998 255.065V273.856C99.9319 274.258 100.679 274.603 101.541 274.89C102.46 275.12 103.581 275.235 104.903 275.235ZM173.415 238.774C173.415 239.521 173.157 240.21 172.64 240.843C172.18 241.417 171.634 241.848 171.002 242.136C169.565 241.101 167.813 240.124 165.744 239.205C163.733 238.285 161.118 237.826 157.9 237.826C154.395 237.826 151.234 238.63 148.418 240.239C145.66 241.848 143.448 244.262 141.781 247.48C140.172 250.64 139.368 254.577 139.368 259.289C139.368 266.357 141.092 271.672 144.54 275.235C148.045 278.798 152.585 280.579 158.159 280.579C161.147 280.579 163.761 280.148 166.003 279.286C168.244 278.424 170.082 277.447 171.519 276.356C172.094 276.585 172.64 277.016 173.157 277.649C173.674 278.223 173.933 278.913 173.933 279.717C173.933 280.292 173.76 280.867 173.415 281.441C173.128 281.958 172.611 282.476 171.864 282.993C170.542 283.912 168.732 284.717 166.433 285.406C164.135 286.153 161.204 286.527 157.641 286.527C152.872 286.527 148.533 285.521 144.626 283.51C140.776 281.441 137.73 278.396 135.489 274.373C133.248 270.351 132.127 265.322 132.127 259.289C132.127 253.255 133.277 248.198 135.575 244.118C137.931 240.038 141.005 236.992 144.798 234.981C148.648 232.912 152.843 231.878 157.383 231.878C160.543 231.878 163.33 232.223 165.744 232.912C168.157 233.602 170.025 234.493 171.347 235.585C172.726 236.619 173.415 237.682 173.415 238.774ZM215.729 268.253H208.833V260.323C208.833 256.875 207.856 254.318 205.902 252.652C204.006 250.985 201.535 250.152 198.489 250.152C196.248 250.152 194.151 250.583 192.197 251.445C190.301 252.307 188.692 253.341 187.37 254.548L186.077 248.945C187.456 247.968 189.266 246.991 191.507 246.014C193.806 244.98 196.449 244.463 199.437 244.463C204.207 244.463 208.115 245.756 211.16 248.342C214.206 250.928 215.729 254.864 215.729 260.151V268.253ZM181.336 262.65H188.232V285.234C187.944 285.349 187.514 285.464 186.939 285.579C186.364 285.751 185.732 285.837 185.043 285.837C183.836 285.837 182.916 285.607 182.284 285.148C181.652 284.63 181.336 283.826 181.336 282.734V262.65ZM208.833 262.737L215.729 262.823V285.234C215.441 285.349 214.982 285.464 214.349 285.579C213.775 285.751 213.171 285.837 212.539 285.837C211.275 285.837 210.327 285.607 209.695 285.148C209.12 284.63 208.833 283.826 208.833 282.734V262.737ZM188.232 266.012H181.336V229.551C181.623 229.436 182.054 229.321 182.629 229.206C183.261 229.034 183.922 228.947 184.612 228.947C185.818 228.947 186.709 229.206 187.284 229.723C187.916 230.183 188.232 230.959 188.232 232.051V266.012ZM227.691 269.891L227.346 264.46L253.378 260.926C253.148 257.766 252.056 255.18 250.102 253.169C248.148 251.1 245.448 250.066 242 250.066C238.437 250.066 235.477 251.359 233.121 253.944C230.823 256.473 229.674 260.122 229.674 264.891V266.788C230.076 271.385 231.57 274.89 234.156 277.304C236.799 279.66 240.391 280.838 244.93 280.838C247.344 280.838 249.528 280.436 251.481 279.631C253.435 278.827 254.987 277.965 256.136 277.045C256.768 277.447 257.257 277.936 257.601 278.511C258.004 279.028 258.205 279.631 258.205 280.321C258.205 281.412 257.573 282.447 256.308 283.424C255.102 284.343 253.464 285.09 251.395 285.665C249.384 286.239 247.114 286.527 244.586 286.527C240.161 286.527 236.311 285.722 233.035 284.113C229.817 282.504 227.318 280.12 225.536 276.959C223.812 273.741 222.95 269.833 222.95 265.236C222.95 261.961 223.41 259.059 224.329 256.53C225.306 253.944 226.628 251.761 228.294 249.979C230.018 248.198 232.058 246.848 234.414 245.928C236.77 244.951 239.328 244.463 242.086 244.463C245.591 244.463 248.666 245.21 251.309 246.704C254.01 248.198 256.107 250.295 257.601 252.996C259.153 255.64 259.929 258.685 259.929 262.133C259.929 263.397 259.641 264.317 259.067 264.891C258.492 265.409 257.687 265.725 256.653 265.84L227.691 269.891ZM298.593 257.823V267.736H291.697V258.34C291.697 255.525 290.864 253.456 289.197 252.134C287.588 250.813 285.433 250.152 282.732 250.152C280.951 250.152 279.227 250.439 277.561 251.014C275.894 251.588 274.486 252.249 273.337 252.996V267.736H266.441V253.341C266.441 252.192 266.671 251.215 267.131 250.41C267.648 249.606 268.51 248.83 269.717 248.083C271.268 247.106 273.222 246.273 275.578 245.583C277.992 244.836 280.405 244.463 282.819 244.463C285.749 244.463 288.335 244.923 290.576 245.842C292.817 246.704 294.484 247.911 295.576 249.462C295.92 249.807 296.208 250.123 296.438 250.41C296.667 250.698 296.897 251.071 297.127 251.531C297.529 252.221 297.874 253.111 298.162 254.203C298.449 255.295 298.593 256.502 298.593 257.823ZM323.848 257.996V267.736H316.952V258.34C316.952 255.525 316.148 253.456 314.539 252.134C312.93 250.813 310.775 250.152 308.074 250.152C306.063 250.152 304.109 250.583 302.213 251.445C300.374 252.249 298.707 253.427 297.213 254.979L294.455 249.979C295.949 248.485 297.903 247.192 300.316 246.101C302.73 245.009 305.488 244.463 308.591 244.463C311.694 244.463 314.367 244.951 316.608 245.928C318.906 246.905 320.688 248.399 321.952 250.41C323.216 252.422 323.848 254.95 323.848 257.996ZM266.441 263.168H273.337V285.234C273.05 285.349 272.619 285.464 272.044 285.579C271.469 285.751 270.837 285.837 270.148 285.837C268.941 285.837 268.021 285.607 267.389 285.148C266.757 284.63 266.441 283.826 266.441 282.734V263.168ZM291.697 263.168H298.593V285.234C298.305 285.349 297.845 285.464 297.213 285.579C296.639 285.751 296.035 285.837 295.403 285.837C294.139 285.837 293.191 285.607 292.559 285.148C291.984 284.63 291.697 283.826 291.697 282.734V263.168ZM316.952 263.168H323.848V285.234C323.561 285.349 323.101 285.464 322.469 285.579C321.894 285.751 321.291 285.837 320.659 285.837C319.395 285.837 318.446 285.607 317.814 285.148C317.24 284.63 316.952 283.826 316.952 282.734V263.168ZM332.761 232.999C332.761 231.792 333.192 230.786 334.054 229.982C334.916 229.12 335.979 228.689 337.244 228.689C338.565 228.689 339.628 229.12 340.433 229.982C341.237 230.786 341.64 231.792 341.64 232.999C341.64 234.205 341.237 235.24 340.433 236.102C339.628 236.906 338.565 237.309 337.244 237.309C335.979 237.309 334.916 236.906 334.054 236.102C333.192 235.24 332.761 234.205 332.761 232.999ZM333.796 262.65H340.692V285.234C340.404 285.349 339.973 285.464 339.399 285.579C338.824 285.751 338.192 285.837 337.502 285.837C336.295 285.837 335.376 285.607 334.744 285.148C334.112 284.63 333.796 283.826 333.796 282.734V262.65ZM340.692 266.012H333.796V245.756C334.083 245.641 334.514 245.526 335.089 245.411C335.721 245.239 336.382 245.152 337.071 245.152C338.278 245.152 339.169 245.411 339.743 245.928C340.375 246.388 340.692 247.192 340.692 248.342V266.012ZM378.809 274.804C378.809 278.482 377.458 281.355 374.757 283.424C372.057 285.492 368.149 286.527 363.035 286.527C358.667 286.527 355.105 285.866 352.346 284.544C349.588 283.165 348.209 281.671 348.209 280.062C348.209 279.372 348.381 278.712 348.726 278.08C349.128 277.39 349.703 276.844 350.45 276.442C352.001 277.534 353.812 278.539 355.88 279.459C357.949 280.378 360.305 280.838 362.948 280.838C368.925 280.838 371.913 278.827 371.913 274.804C371.913 273.138 371.396 271.787 370.361 270.753C369.384 269.661 367.919 268.885 365.965 268.426L358.811 266.529C355.306 265.667 352.748 264.346 351.139 262.564C349.53 260.725 348.726 258.455 348.726 255.755C348.726 252.709 349.961 250.066 352.432 247.824C354.903 245.583 358.667 244.463 363.724 244.463C366.425 244.463 368.781 244.75 370.792 245.325C372.804 245.842 374.355 246.56 375.447 247.48C376.596 248.342 377.171 249.29 377.171 250.324C377.171 251.071 376.97 251.732 376.567 252.307C376.223 252.881 375.734 253.312 375.102 253.6C374.413 253.14 373.522 252.652 372.43 252.134C371.396 251.56 370.16 251.1 368.724 250.755C367.287 250.353 365.707 250.152 363.983 250.152C361.454 250.152 359.414 250.64 357.863 251.617C356.311 252.594 355.536 253.973 355.536 255.755C355.536 257.019 355.966 258.139 356.828 259.116C357.748 260.036 359.185 260.725 361.138 261.185L367.086 262.65C370.993 263.57 373.924 265.035 375.878 267.046C377.832 269 378.809 271.586 378.809 274.804ZM385.9 262.65H392.795V274.545C392.795 276.844 393.456 278.482 394.778 279.459C396.1 280.378 397.91 280.838 400.208 280.838C401.185 280.838 402.277 280.665 403.484 280.321C404.691 279.976 405.696 279.574 406.501 279.114C406.845 279.459 407.161 279.89 407.449 280.407C407.736 280.924 407.88 281.527 407.88 282.217C407.88 283.481 407.133 284.516 405.639 285.32C404.145 286.125 402.076 286.527 399.433 286.527C395.41 286.527 392.135 285.636 389.606 283.855C387.135 282.073 385.9 279.114 385.9 274.976V262.65ZM389.434 252.134V246.445H406.932C407.104 246.675 407.276 247.049 407.449 247.566C407.621 248.083 407.707 248.629 407.707 249.204C407.707 250.123 407.478 250.841 407.018 251.359C406.558 251.876 405.926 252.134 405.122 252.134H389.434ZM392.795 265.236H385.9V234.033C386.187 233.918 386.618 233.803 387.193 233.688C387.825 233.516 388.486 233.43 389.175 233.43C390.382 233.43 391.273 233.688 391.847 234.205C392.479 234.665 392.795 235.441 392.795 236.533V265.236Z" fill="black"/>
<path d="M218.892 13.0309C218.892 8.96245 223.677 6.78139 226.748 9.45024L252.411 31.7581C252.94 30.4939 254.189 29.6056 255.645 29.6056C257.58 29.6057 259.148 31.1742 259.148 33.1089C259.148 34.391 258.459 35.5112 257.431 36.1217L275.445 51.7804C276.481 52.6814 277.076 53.9872 277.076 55.3605V133.08C277.076 136.444 277.037 139.668 276.617 142.918C271.748 180.69 239.468 209.874 200.371 209.874C167.661 209.874 139.722 189.447 128.615 160.655C127.142 156.837 130.121 152.946 134.214 152.945H147.685C150.703 152.945 153.348 154.876 154.63 157.608C162.223 173.79 177.842 183.93 199.177 183.93C220.456 183.93 239.652 171.105 246.613 151.765C248.849 145.55 244.608 138.751 238.214 137.097C236.339 136.612 234.435 136.287 232.501 136.287H225.754C218.92 136.287 212.471 138.902 207.06 143.08C204.874 144.768 202.134 145.772 199.156 145.772C191.867 145.772 185.98 139.76 186.186 132.423C186.213 131.476 186.347 130.551 186.575 129.66C187.013 127.804 187.868 126.016 189.152 124.441C192.318 120.559 197.259 118.992 201.843 119.949C205.098 120.628 208.45 119.349 210.552 116.771L210.787 116.483C212.521 114.357 213.102 111.577 212.645 108.866C212.319 106.933 212.795 104.877 214.13 103.241C216.632 100.172 221.184 99.7712 224.192 102.396C227.01 104.855 227.387 109.257 225.031 112.158C223.653 113.856 221.651 114.739 219.627 114.75C216.865 114.765 214.297 116.177 212.55 118.319L212.505 118.374C212.13 118.833 211.806 119.322 211.533 119.834C210.001 122.706 212.113 125.942 215.132 127.161C218.539 128.537 222.163 129.309 225.901 129.309H232.501C234.372 129.309 236.196 129.066 237.989 128.669C244.21 127.294 247.835 120.649 245.864 114.59C241.543 101.3 232.97 90.3306 218.892 85.0477V13.0309Z" fill="url(#paint0_linear_557_6956)"/>
<path d="M189.986 157.841C192.078 156.013 195.255 156.233 197.081 158.333C198.907 160.432 198.691 163.616 196.599 165.444C194.507 167.272 191.33 167.051 189.504 164.952C187.678 162.852 187.894 159.669 189.986 157.841Z" fill="url(#paint1_linear_557_6956)"/>
<path d="M156.01 99.2543C159.213 95.5646 164.954 95.0788 168.743 98.1709C170.959 99.98 172.114 102.606 172.132 105.26C172.156 108.879 174.003 112.248 176.8 114.541L176.871 114.599C180.28 117.395 184.942 118.055 189.003 116.358C193.982 114.278 199.811 114.648 204.576 117.658C203.837 117.774 203.077 117.76 202.326 117.603C196.693 116.427 190.935 118.466 187.3 122.923C184.212 126.709 183.102 131.802 184.33 136.545C185.21 139.943 187.254 142.972 190.086 145.073C193.075 147.29 196.794 148.331 200.556 148.004C201.035 147.962 201.509 147.898 201.976 147.814C196.41 150.08 189.809 149.303 184.826 145.217C179.757 141.061 177.704 134.583 178.944 128.577C179.824 124.312 178.15 119.916 174.784 117.156L174.408 116.848C171.631 114.572 168.004 113.805 164.469 114.399C161.948 114.823 159.265 114.196 157.128 112.445C153.121 109.159 152.591 103.193 156.01 99.2543Z" fill="url(#paint2_linear_557_6956)"/>
<path d="M158.722 125.707C161.647 123.699 165.644 124.45 167.651 127.385C169.657 130.319 168.913 134.325 165.989 136.333C163.064 138.34 159.066 137.588 157.06 134.654C155.053 131.72 155.798 127.714 158.722 125.707Z" fill="url(#paint3_linear_557_6956)"/>
<path d="M195.741 98.0708C197.927 95.9518 201.416 96.0132 203.533 98.2079C205.65 100.403 205.593 103.899 203.407 106.018C201.22 108.137 197.731 108.076 195.615 105.881C193.498 103.687 193.554 100.19 195.741 98.0708Z" fill="url(#paint4_linear_557_6956)"/>
<path d="M247.763 10.7754C250.665 10.7754 253.018 13.1284 253.018 16.0306C253.018 18.9327 250.665 21.2853 247.763 21.2853C244.861 21.2852 242.508 18.9327 242.508 16.0306C242.508 13.1285 244.86 10.7755 247.763 10.7754Z" fill="url(#paint5_linear_557_6956)"/>
<path d="M263.527 0.703125C267.155 0.703252 270.095 3.64397 270.096 7.27157C270.096 10.8993 267.155 13.8405 263.527 13.8406C259.899 13.8406 256.958 10.8993 256.958 7.27157C256.958 3.6439 259.899 0.703125 263.527 0.703125Z" fill="url(#paint6_linear_557_6956)"/>
<defs>
<linearGradient id="paint0_linear_557_6956" x1="216.413" y1="-12.4799" x2="112.33" y2="186.423" gradientUnits="userSpaceOnUse">
<stop stop-color="#2977D1"/>
<stop offset="0.705291" stop-color="#1A4C84"/>
</linearGradient>
<linearGradient id="paint1_linear_557_6956" x1="216.413" y1="-12.4799" x2="112.33" y2="186.423" gradientUnits="userSpaceOnUse">
<stop stop-color="#2977D1"/>
<stop offset="0.705291" stop-color="#1A4C84"/>
</linearGradient>
<linearGradient id="paint2_linear_557_6956" x1="216.413" y1="-12.4799" x2="112.33" y2="186.423" gradientUnits="userSpaceOnUse">
<stop stop-color="#2977D1"/>
<stop offset="0.705291" stop-color="#1A4C84"/>
</linearGradient>
<linearGradient id="paint3_linear_557_6956" x1="216.413" y1="-12.4799" x2="112.33" y2="186.423" gradientUnits="userSpaceOnUse">
<stop stop-color="#2977D1"/>
<stop offset="0.705291" stop-color="#1A4C84"/>
</linearGradient>
<linearGradient id="paint4_linear_557_6956" x1="216.413" y1="-12.4799" x2="112.33" y2="186.423" gradientUnits="userSpaceOnUse">
<stop stop-color="#2977D1"/>
<stop offset="0.705291" stop-color="#1A4C84"/>
</linearGradient>
<linearGradient id="paint5_linear_557_6956" x1="216.413" y1="-12.4799" x2="112.33" y2="186.423" gradientUnits="userSpaceOnUse">
<stop stop-color="#2977D1"/>
<stop offset="0.705291" stop-color="#1A4C84"/>
</linearGradient>
<linearGradient id="paint6_linear_557_6956" x1="216.413" y1="-12.4799" x2="112.33" y2="186.423" gradientUnits="userSpaceOnUse">
<stop stop-color="#2977D1"/>
<stop offset="0.705291" stop-color="#1A4C84"/>
</linearGradient>
</defs>
</svg>
