<svg width="412" height="287" viewBox="0 0 412 287" fill="none" xmlns="http://www.w3.org/2000/svg">
<path d="M16.0297 232.468C16.6618 232.353 17.6675 232.209 19.0466 232.037C20.4258 231.807 21.7474 231.692 23.0117 231.692C24.3333 231.692 25.4826 231.807 26.4595 232.037C27.4939 232.209 28.3559 232.554 29.0454 233.071C29.735 233.588 30.2522 234.307 30.597 235.226C30.9418 236.146 31.1141 237.352 31.1141 238.846V270.739C31.1141 275.854 29.6488 279.704 26.7181 282.29C23.7874 284.818 19.4776 286.082 13.7886 286.082C10.8005 286.082 8.38696 285.623 6.5481 284.703C5.22641 284.071 4.24952 283.209 3.61741 282.117C3.04276 281.025 2.75544 279.79 2.75544 278.411C2.75544 277.261 2.8991 276.256 3.18643 275.394C3.53121 274.532 3.93346 273.842 4.39318 273.325C5.485 273.555 6.40444 273.727 7.15147 273.842C7.95598 273.9 8.81794 273.929 9.73737 273.929C11.9785 273.929 13.5875 273.383 14.5644 272.291C15.5413 271.142 16.0297 269.475 16.0297 267.291V232.468ZM80.8591 263.757C80.8591 267.32 80.3131 270.509 79.2213 273.325C78.1295 276.083 76.578 278.411 74.5667 280.307C72.6129 282.203 70.2569 283.64 67.4986 284.617C64.7403 285.594 61.6659 286.082 58.2755 286.082C54.8851 286.082 51.8108 285.565 49.0525 284.531C46.2942 283.496 43.9094 282.031 41.8982 280.135C39.9444 278.181 38.4216 275.825 37.3297 273.067C36.2379 270.308 35.692 267.205 35.692 263.757C35.692 260.367 36.2379 257.293 37.3297 254.534C38.4216 251.776 39.9444 249.449 41.8982 247.552C43.9094 245.599 46.2942 244.104 49.0525 243.07C51.8108 242.036 54.8851 241.519 58.2755 241.519C61.6659 241.519 64.7403 242.065 67.4986 243.156C70.2569 244.191 72.6129 245.685 74.5667 247.639C76.578 249.535 78.1295 251.862 79.2213 254.62C80.3131 257.379 80.8591 260.424 80.8591 263.757ZM50.6902 263.757C50.6902 267.263 51.3511 269.963 52.6727 271.86C54.0519 273.699 55.9482 274.618 58.3617 274.618C60.7752 274.618 62.6141 273.67 63.8783 271.774C65.2 269.877 65.8608 267.205 65.8608 263.757C65.8608 260.309 65.2 257.666 63.8783 255.827C62.5566 253.931 60.689 252.983 58.2755 252.983C55.862 252.983 53.9944 253.931 52.6727 255.827C51.3511 257.666 50.6902 260.309 50.6902 263.757ZM84.7325 228.589C85.3072 228.417 86.2266 228.244 87.4908 228.072C88.755 227.842 90.048 227.727 91.3697 227.727C92.6339 227.727 93.7544 227.813 94.7313 227.986C95.7657 228.158 96.6277 228.503 97.3172 229.02C98.0068 229.537 98.524 230.256 98.8688 231.175C99.2136 232.037 99.386 233.186 99.386 234.623V243.07C100.823 242.495 102.173 242.093 103.437 241.863C104.759 241.634 106.195 241.519 107.747 241.519C110.505 241.519 113.12 242.007 115.591 242.984C118.062 243.961 120.246 245.397 122.142 247.294C124.038 249.133 125.532 251.431 126.624 254.19C127.716 256.948 128.262 260.137 128.262 263.757C128.262 267.493 127.687 270.768 126.538 273.584C125.446 276.342 123.895 278.641 121.883 280.479C119.872 282.318 117.401 283.726 114.47 284.703C111.597 285.623 108.408 286.082 104.903 286.082C101.11 286.082 97.8919 285.623 95.2485 284.703C92.6051 283.841 90.364 282.749 88.5252 281.428C85.9967 279.646 84.7325 277.348 84.7325 274.532V228.589ZM104.903 274.532C107.546 274.532 109.586 273.641 111.023 271.86C112.517 270.021 113.264 267.32 113.264 263.757C113.264 260.137 112.517 257.436 111.023 255.655C109.528 253.873 107.517 252.983 104.989 252.983C103.839 252.983 102.834 253.098 101.972 253.328C101.167 253.557 100.277 253.902 99.2998 254.362V273.153C99.9319 273.555 100.679 273.9 101.541 274.187C102.46 274.417 103.581 274.532 104.903 274.532ZM173.415 238.071C173.415 238.818 173.157 239.507 172.64 240.139C172.18 240.714 171.634 241.145 171.002 241.432C169.565 240.398 167.813 239.421 165.744 238.502C163.733 237.582 161.118 237.123 157.9 237.123C154.395 237.123 151.234 237.927 148.418 239.536C145.66 241.145 143.448 243.559 141.781 246.777C140.172 249.937 139.368 253.873 139.368 258.586C139.368 265.654 141.092 270.969 144.54 274.532C148.045 278.095 152.585 279.876 158.159 279.876C161.147 279.876 163.761 279.445 166.003 278.583C168.244 277.721 170.082 276.744 171.519 275.652C172.094 275.882 172.64 276.313 173.157 276.945C173.674 277.52 173.933 278.21 173.933 279.014C173.933 279.589 173.76 280.163 173.415 280.738C173.128 281.255 172.611 281.772 171.864 282.29C170.542 283.209 168.732 284.014 166.433 284.703C164.135 285.45 161.204 285.824 157.641 285.824C152.872 285.824 148.533 284.818 144.626 282.807C140.776 280.738 137.73 277.692 135.489 273.67C133.248 269.647 132.127 264.619 132.127 258.586C132.127 252.552 133.277 247.495 135.575 243.415C137.931 239.335 141.005 236.289 144.798 234.278C148.648 232.209 152.843 231.175 157.383 231.175C160.543 231.175 163.33 231.52 165.744 232.209C168.157 232.899 170.025 233.79 171.347 234.881C172.726 235.916 173.415 236.979 173.415 238.071ZM215.729 267.55H208.833V259.62C208.833 256.172 207.856 253.615 205.902 251.948C204.006 250.282 201.535 249.449 198.489 249.449C196.248 249.449 194.151 249.88 192.197 250.742C190.301 251.604 188.692 252.638 187.37 253.845L186.077 248.242C187.456 247.265 189.266 246.288 191.507 245.311C193.806 244.277 196.449 243.76 199.437 243.76C204.207 243.76 208.115 245.053 211.16 247.639C214.206 250.224 215.729 254.161 215.729 259.447V267.55ZM181.336 261.947H188.232V284.531C187.944 284.646 187.514 284.761 186.939 284.876C186.364 285.048 185.732 285.134 185.043 285.134C183.836 285.134 182.916 284.904 182.284 284.445C181.652 283.927 181.336 283.123 181.336 282.031V261.947ZM208.833 262.033L215.729 262.12V284.531C215.441 284.646 214.982 284.761 214.349 284.876C213.775 285.048 213.171 285.134 212.539 285.134C211.275 285.134 210.327 284.904 209.695 284.445C209.12 283.927 208.833 283.123 208.833 282.031V262.033ZM188.232 265.309H181.336V228.848C181.623 228.733 182.054 228.618 182.629 228.503C183.261 228.331 183.922 228.244 184.612 228.244C185.818 228.244 186.709 228.503 187.284 229.02C187.916 229.48 188.232 230.256 188.232 231.347V265.309ZM227.691 269.188L227.346 263.757L253.378 260.223C253.148 257.063 252.056 254.477 250.102 252.466C248.148 250.397 245.448 249.362 242 249.362C238.437 249.362 235.477 250.655 233.121 253.241C230.823 255.77 229.674 259.419 229.674 264.188V266.085C230.076 270.682 231.57 274.187 234.156 276.601C236.799 278.957 240.391 280.135 244.93 280.135C247.344 280.135 249.528 279.732 251.481 278.928C253.435 278.123 254.987 277.261 256.136 276.342C256.768 276.744 257.257 277.233 257.601 277.807C258.004 278.325 258.205 278.928 258.205 279.618C258.205 280.709 257.573 281.744 256.308 282.721C255.102 283.64 253.464 284.387 251.395 284.962C249.384 285.536 247.114 285.824 244.586 285.824C240.161 285.824 236.311 285.019 233.035 283.41C229.817 281.801 227.318 279.416 225.536 276.256C223.812 273.038 222.95 269.13 222.95 264.533C222.95 261.258 223.41 258.356 224.329 255.827C225.306 253.241 226.628 251.058 228.294 249.276C230.018 247.495 232.058 246.144 234.414 245.225C236.77 244.248 239.328 243.76 242.086 243.76C245.591 243.76 248.666 244.507 251.309 246.001C254.01 247.495 256.107 249.592 257.601 252.293C259.153 254.937 259.929 257.982 259.929 261.43C259.929 262.694 259.641 263.614 259.067 264.188C258.492 264.705 257.687 265.022 256.653 265.136L227.691 269.188ZM298.593 257.12V267.033H291.697V257.637C291.697 254.822 290.864 252.753 289.197 251.431C287.588 250.11 285.433 249.449 282.732 249.449C280.951 249.449 279.227 249.736 277.561 250.311C275.894 250.885 274.486 251.546 273.337 252.293V267.033H266.441V252.638C266.441 251.489 266.671 250.512 267.131 249.707C267.648 248.903 268.51 248.127 269.717 247.38C271.268 246.403 273.222 245.57 275.578 244.88C277.992 244.133 280.405 243.76 282.819 243.76C285.749 243.76 288.335 244.219 290.576 245.139C292.817 246.001 294.484 247.208 295.576 248.759C295.92 249.104 296.208 249.42 296.438 249.707C296.667 249.995 296.897 250.368 297.127 250.828C297.529 251.517 297.874 252.408 298.162 253.5C298.449 254.592 298.593 255.799 298.593 257.12ZM323.848 257.293V267.033H316.952V257.637C316.952 254.822 316.148 252.753 314.539 251.431C312.93 250.11 310.775 249.449 308.074 249.449C306.063 249.449 304.109 249.88 302.213 250.742C300.374 251.546 298.707 252.724 297.213 254.276L294.455 249.276C295.949 247.782 297.903 246.489 300.316 245.397C302.73 244.306 305.488 243.76 308.591 243.76C311.694 243.76 314.367 244.248 316.608 245.225C318.906 246.202 320.688 247.696 321.952 249.707C323.216 251.719 323.848 254.247 323.848 257.293ZM266.441 262.464H273.337V284.531C273.05 284.646 272.619 284.761 272.044 284.876C271.469 285.048 270.837 285.134 270.148 285.134C268.941 285.134 268.021 284.904 267.389 284.445C266.757 283.927 266.441 283.123 266.441 282.031V262.464ZM291.697 262.464H298.593V284.531C298.305 284.646 297.845 284.761 297.213 284.876C296.639 285.048 296.035 285.134 295.403 285.134C294.139 285.134 293.191 284.904 292.559 284.445C291.984 283.927 291.697 283.123 291.697 282.031V262.464ZM316.952 262.464H323.848V284.531C323.561 284.646 323.101 284.761 322.469 284.876C321.894 285.048 321.291 285.134 320.659 285.134C319.395 285.134 318.446 284.904 317.814 284.445C317.24 283.927 316.952 283.123 316.952 282.031V262.464ZM332.761 232.296C332.761 231.089 333.192 230.083 334.054 229.279C334.916 228.417 335.979 227.986 337.244 227.986C338.565 227.986 339.628 228.417 340.433 229.279C341.237 230.083 341.64 231.089 341.64 232.296C341.64 233.502 341.237 234.537 340.433 235.399C339.628 236.203 338.565 236.605 337.244 236.605C335.979 236.605 334.916 236.203 334.054 235.399C333.192 234.537 332.761 233.502 332.761 232.296ZM333.796 261.947H340.692V284.531C340.404 284.646 339.973 284.761 339.399 284.876C338.824 285.048 338.192 285.134 337.502 285.134C336.295 285.134 335.376 284.904 334.744 284.445C334.112 283.927 333.796 283.123 333.796 282.031V261.947ZM340.692 265.309H333.796V245.053C334.083 244.938 334.514 244.823 335.089 244.708C335.721 244.535 336.382 244.449 337.071 244.449C338.278 244.449 339.169 244.708 339.743 245.225C340.375 245.685 340.692 246.489 340.692 247.639V265.309ZM378.809 274.101C378.809 277.779 377.458 280.652 374.757 282.721C372.057 284.789 368.149 285.824 363.035 285.824C358.667 285.824 355.105 285.163 352.346 283.841C349.588 282.462 348.209 280.968 348.209 279.359C348.209 278.669 348.381 278.009 348.726 277.376C349.128 276.687 349.703 276.141 350.45 275.739C352.001 276.83 353.812 277.836 355.88 278.756C357.949 279.675 360.305 280.135 362.948 280.135C368.925 280.135 371.913 278.123 371.913 274.101C371.913 272.434 371.396 271.084 370.361 270.05C369.384 268.958 367.919 268.182 365.965 267.722L358.811 265.826C355.306 264.964 352.748 263.642 351.139 261.861C349.53 260.022 348.726 257.752 348.726 255.051C348.726 252.006 349.961 249.362 352.432 247.121C354.903 244.88 358.667 243.76 363.724 243.76C366.425 243.76 368.781 244.047 370.792 244.622C372.804 245.139 374.355 245.857 375.447 246.777C376.596 247.639 377.171 248.587 377.171 249.621C377.171 250.368 376.97 251.029 376.567 251.604C376.223 252.178 375.734 252.609 375.102 252.897C374.413 252.437 373.522 251.948 372.43 251.431C371.396 250.857 370.16 250.397 368.724 250.052C367.287 249.65 365.707 249.449 363.983 249.449C361.454 249.449 359.414 249.937 357.863 250.914C356.311 251.891 355.536 253.27 355.536 255.051C355.536 256.316 355.966 257.436 356.828 258.413C357.748 259.333 359.185 260.022 361.138 260.482L367.086 261.947C370.993 262.867 373.924 264.332 375.878 266.343C377.832 268.297 378.809 270.883 378.809 274.101ZM385.9 261.947H392.795V273.842C392.795 276.141 393.456 277.779 394.778 278.756C396.1 279.675 397.91 280.135 400.208 280.135C401.185 280.135 402.277 279.962 403.484 279.618C404.691 279.273 405.696 278.87 406.501 278.411C406.845 278.756 407.161 279.187 407.449 279.704C407.736 280.221 407.88 280.824 407.88 281.514C407.88 282.778 407.133 283.812 405.639 284.617C404.145 285.421 402.076 285.824 399.433 285.824C395.41 285.824 392.135 284.933 389.606 283.152C387.135 281.37 385.9 278.411 385.9 274.273V261.947ZM389.434 251.431V245.742H406.932C407.104 245.972 407.276 246.346 407.449 246.863C407.621 247.38 407.707 247.926 407.707 248.501C407.707 249.42 407.478 250.138 407.018 250.655C406.558 251.173 405.926 251.431 405.122 251.431H389.434ZM392.795 264.533H385.9V233.33C386.187 233.215 386.618 233.1 387.193 232.985C387.825 232.813 388.486 232.727 389.175 232.727C390.382 232.727 391.273 232.985 391.847 233.502C392.479 233.962 392.795 234.738 392.795 235.83V264.533Z" fill="black"/>
<path d="M218.892 12.3278C218.892 8.25933 223.677 6.07827 226.748 8.74712L252.411 31.055C252.94 29.7908 254.189 28.9025 255.645 28.9025C257.58 28.9026 259.148 30.4711 259.148 32.4058C259.148 33.6879 258.459 34.808 257.431 35.4186L275.445 51.0773C276.481 51.9782 277.076 53.2841 277.076 54.6574V132.377C277.076 135.741 277.037 138.965 276.617 142.214C271.748 179.986 239.468 209.17 200.371 209.171C167.661 209.171 139.722 188.744 128.615 159.952C127.142 156.133 130.121 152.242 134.214 152.242H147.685C150.703 152.242 153.348 154.173 154.63 156.905C162.223 173.086 177.842 183.227 199.177 183.227C220.456 183.227 239.652 170.402 246.613 151.062C248.849 144.847 244.608 138.048 238.214 136.394C236.339 135.909 234.435 135.583 232.501 135.583H225.754C218.92 135.583 212.471 138.199 207.06 142.377C204.874 144.065 202.134 145.069 199.156 145.069C191.867 145.069 185.98 139.057 186.186 131.72C186.213 130.773 186.347 129.847 186.575 128.957C187.013 127.101 187.868 125.313 189.152 123.738C192.318 119.856 197.259 118.289 201.843 119.245C205.098 119.925 208.45 118.645 210.552 116.068L210.787 115.78C212.521 113.654 213.102 110.874 212.645 108.163C212.319 106.23 212.795 104.174 214.13 102.537C216.632 99.469 221.184 99.0681 224.192 101.693C227.01 104.152 227.387 108.554 225.031 111.455C223.653 113.153 221.651 114.036 219.627 114.047C216.865 114.062 214.297 115.474 212.55 117.616L212.505 117.67C212.13 118.13 211.806 118.619 211.533 119.13C210.001 122.003 212.113 125.239 215.132 126.458C218.539 127.833 222.163 128.606 225.901 128.606H232.501C234.372 128.606 236.196 128.363 237.989 127.966C244.21 126.591 247.835 119.946 245.864 113.887C241.543 100.597 232.97 89.6275 218.892 84.3445V12.3278Z" fill="black"/>
<path d="M189.986 157.138C192.078 155.31 195.255 155.53 197.081 157.63C198.907 159.729 198.691 162.913 196.599 164.741C194.507 166.569 191.33 166.348 189.504 164.249C187.678 162.149 187.894 158.966 189.986 157.138Z" fill="black"/>
<path d="M156.01 98.5511C159.213 94.8615 164.954 94.3756 168.743 97.4678C170.959 99.2769 172.114 101.903 172.132 104.557C172.156 108.176 174.003 111.545 176.8 113.838L176.871 113.896C180.28 116.692 184.942 117.352 189.003 115.655C193.982 113.575 199.811 113.945 204.576 116.955C203.837 117.071 203.077 117.057 202.326 116.9C196.693 115.724 190.935 117.763 187.3 122.22C184.212 126.006 183.102 131.099 184.33 135.842C185.21 139.24 187.254 142.269 190.086 144.37C193.075 146.587 196.794 147.628 200.556 147.301C201.035 147.259 201.509 147.195 201.976 147.111C196.41 149.376 189.809 148.6 184.826 144.514C179.757 140.358 177.704 133.88 178.944 127.874C179.824 123.609 178.15 119.213 174.784 116.453L174.408 116.145C171.631 113.868 168.004 113.102 164.469 113.696C161.948 114.12 159.265 113.493 157.128 111.742C153.121 108.456 152.591 102.49 156.01 98.5511Z" fill="black"/>
<path d="M158.722 125.004C161.647 122.996 165.644 123.747 167.651 126.682C169.657 129.616 168.913 133.622 165.989 135.63C163.064 137.637 159.066 136.885 157.06 133.951C155.053 131.017 155.798 127.011 158.722 125.004Z" fill="black"/>
<path d="M195.741 97.3676C197.927 95.2487 201.416 95.3101 203.533 97.5048C205.65 99.6994 205.593 103.196 203.407 105.315C201.22 107.434 197.731 107.373 195.615 105.178C193.498 102.983 193.554 99.4866 195.741 97.3676Z" fill="black"/>
<path d="M247.763 10.0723C250.665 10.0723 253.018 12.4253 253.018 15.3275C253.018 18.2296 250.665 20.5822 247.763 20.5822C244.861 20.5821 242.508 18.2296 242.508 15.3275C242.508 12.4253 244.86 10.0724 247.763 10.0723Z" fill="black"/>
<path d="M263.527 0C267.155 0.00012672 270.095 2.94085 270.096 6.56844C270.096 10.1961 267.155 13.1373 263.527 13.1375C259.899 13.1375 256.958 10.1962 256.958 6.56844C256.958 2.94077 259.899 0 263.527 0Z" fill="black"/>
</svg>
