<svg width="628" height="286" viewBox="0 0 628 286" fill="none" xmlns="http://www.w3.org/2000/svg">
<path d="M356.471 73.3612C357.274 73.1202 358.559 72.8792 360.327 72.6382C362.094 72.3169 363.901 72.1562 365.749 72.1562C367.516 72.1562 369.083 72.2767 370.449 72.5177C371.895 72.7587 373.099 73.2407 374.063 73.9637C375.027 74.6867 375.75 75.6909 376.232 76.9762C376.714 78.1812 376.955 79.7878 376.955 81.7961V93.605C378.964 92.8017 380.852 92.2393 382.619 91.918C384.467 91.5967 386.475 91.436 388.644 91.436C392.5 91.436 396.155 92.1188 399.609 93.4845C403.063 94.8501 406.116 96.8585 408.767 99.5094C411.418 102.08 413.507 105.293 415.033 109.149C416.559 113.005 417.322 117.464 417.322 122.525C417.322 127.746 416.519 132.325 414.913 136.261C413.386 140.117 411.217 143.331 408.406 145.901C405.594 148.472 402.14 150.44 398.043 151.806C394.026 153.091 389.568 153.734 384.667 153.734C379.365 153.734 374.867 153.091 371.172 151.806C367.476 150.601 364.343 149.074 361.773 147.227C358.238 144.737 356.471 141.523 356.471 137.587V73.3612ZM384.667 137.587C388.363 137.587 391.214 136.342 393.223 133.852C395.311 131.281 396.356 127.505 396.356 122.525C396.356 117.464 395.311 113.688 393.223 111.198C391.134 108.707 388.322 107.462 384.788 107.462C383.181 107.462 381.775 107.623 380.57 107.944C379.446 108.266 378.201 108.748 376.835 109.39V135.659C377.719 136.221 378.763 136.703 379.968 137.105C381.253 137.426 382.82 137.587 384.667 137.587Z" fill="black"/>
<path d="M351.057 122.524C351.057 127.505 350.294 131.963 348.768 135.9C347.241 139.755 345.072 143.009 342.261 145.66C339.53 148.311 336.236 150.319 332.38 151.685C328.524 153.05 324.226 153.733 319.487 153.733C314.747 153.733 310.449 153.01 306.593 151.564C302.737 150.118 299.404 148.07 296.592 145.419C293.861 142.688 291.732 139.394 290.205 135.538C288.679 131.682 287.916 127.344 287.916 122.524C287.916 117.785 288.679 113.487 290.205 109.631C291.732 105.775 293.861 102.521 296.592 99.8704C299.404 97.1391 302.737 95.0505 306.593 93.6045C310.449 92.1585 314.747 91.4355 319.487 91.4355C324.226 91.4355 328.524 92.1987 332.38 93.725C336.236 95.171 339.53 97.2596 342.261 99.9909C345.072 102.642 347.241 105.895 348.768 109.751C350.294 113.607 351.057 117.865 351.057 122.524ZM308.883 122.524C308.883 127.424 309.807 131.2 311.654 133.851C313.582 136.422 316.233 137.707 319.607 137.707C322.981 137.707 325.552 136.382 327.319 133.731C329.167 131.08 330.091 127.344 330.091 122.524C330.091 117.704 329.167 114.009 327.319 111.438C325.471 108.787 322.861 107.462 319.487 107.462C316.113 107.462 313.502 108.787 311.654 111.438C309.807 114.009 308.883 117.704 308.883 122.524Z" fill="black"/>
<path d="M260.428 78.7837C261.312 78.623 262.717 78.4222 264.645 78.1812C266.573 77.8599 268.421 77.6992 270.188 77.6992C272.036 77.6992 273.643 77.8599 275.008 78.1812C276.454 78.4222 277.659 78.9042 278.623 79.6272C279.587 80.3502 280.31 81.3543 280.792 82.6397C281.274 83.925 281.515 85.612 281.515 87.7006V132.285C281.515 139.435 279.467 144.817 275.37 148.432C271.273 151.966 265.248 153.734 257.295 153.734C253.118 153.734 249.744 153.091 247.173 151.806C245.325 150.922 243.96 149.717 243.076 148.191C242.273 146.665 241.871 144.937 241.871 143.009C241.871 141.403 242.072 139.997 242.474 138.792C242.956 137.587 243.518 136.623 244.161 135.9C245.687 136.221 246.972 136.462 248.017 136.623C249.141 136.703 250.346 136.744 251.631 136.744C254.764 136.744 257.014 135.98 258.379 134.454C259.745 132.847 260.428 130.518 260.428 127.465V78.7837Z" fill="black"/>
<path d="M596.633 211.954H606.273V228.583C606.273 231.797 607.197 234.086 609.044 235.452C610.892 236.737 613.422 237.38 616.636 237.38C618.001 237.38 619.528 237.139 621.215 236.657C622.901 236.175 624.307 235.612 625.432 234.97C625.914 235.452 626.356 236.054 626.757 236.777C627.159 237.5 627.36 238.344 627.36 239.308C627.36 241.075 626.316 242.521 624.227 243.646C622.138 244.77 619.246 245.333 615.551 245.333C609.928 245.333 605.349 244.087 601.814 241.597C598.36 239.107 596.633 234.97 596.633 229.186V211.954ZM601.573 197.254V189.301H626.034C626.275 189.622 626.516 190.144 626.757 190.867C626.998 191.59 627.119 192.353 627.119 193.157C627.119 194.442 626.798 195.446 626.155 196.169C625.512 196.892 624.629 197.254 623.504 197.254H601.573ZM606.273 215.569H596.633V171.949C597.034 171.788 597.637 171.628 598.44 171.467C599.324 171.226 600.248 171.105 601.212 171.105C602.899 171.105 604.144 171.467 604.947 172.19C605.831 172.833 606.273 173.917 606.273 175.443V215.569Z" fill="black"/>
<path d="M586.718 228.945C586.718 234.086 584.831 238.103 581.055 240.995C577.279 243.887 571.817 245.333 564.667 245.333C558.562 245.333 553.581 244.409 549.725 242.561C545.869 240.633 543.941 238.545 543.941 236.295C543.941 235.331 544.182 234.407 544.664 233.524C545.227 232.56 546.03 231.797 547.074 231.234C549.243 232.761 551.774 234.166 554.666 235.452C557.558 236.737 560.851 237.38 564.547 237.38C572.901 237.38 577.079 234.568 577.079 228.945C577.079 226.615 576.356 224.727 574.91 223.281C573.544 221.755 571.495 220.671 568.764 220.028L558.763 217.377C553.862 216.172 550.288 214.324 548.038 211.834C545.789 209.263 544.664 206.09 544.664 202.315C544.664 198.057 546.392 194.362 549.846 191.229C553.3 188.096 558.562 186.529 565.631 186.529C569.407 186.529 572.7 186.931 575.512 187.734C578.324 188.457 580.493 189.461 582.019 190.747C583.626 191.952 584.429 193.277 584.429 194.723C584.429 195.768 584.148 196.691 583.585 197.495C583.103 198.298 582.421 198.9 581.537 199.302C580.573 198.659 579.328 197.977 577.802 197.254C576.356 196.45 574.628 195.808 572.62 195.326C570.612 194.763 568.403 194.482 565.993 194.482C562.458 194.482 559.606 195.165 557.437 196.531C555.268 197.896 554.184 199.824 554.184 202.315C554.184 204.082 554.786 205.648 555.991 207.014C557.277 208.299 559.285 209.263 562.016 209.906L570.331 211.954C575.793 213.24 579.89 215.288 582.621 218.1C585.353 220.831 586.718 224.446 586.718 228.945Z" fill="black"/>
<path d="M522.35 170.503C522.35 168.816 522.952 167.411 524.157 166.286C525.362 165.081 526.848 164.479 528.616 164.479C530.463 164.479 531.949 165.081 533.074 166.286C534.199 167.411 534.761 168.816 534.761 170.503C534.761 172.19 534.199 173.636 533.074 174.841C531.949 175.966 530.463 176.528 528.616 176.528C526.848 176.528 525.362 175.966 524.157 174.841C522.952 173.636 522.35 172.19 522.35 170.503ZM523.796 211.955H533.435V243.526C533.034 243.686 532.431 243.847 531.628 244.008C530.825 244.249 529.941 244.369 528.977 244.369C527.29 244.369 526.005 244.048 525.121 243.405C524.237 242.682 523.796 241.557 523.796 240.031V211.955ZM533.435 216.654H523.796V188.337C524.197 188.177 524.8 188.016 525.603 187.855C526.487 187.614 527.411 187.494 528.375 187.494C530.062 187.494 531.307 187.855 532.11 188.578C532.994 189.221 533.435 190.346 533.435 191.952V216.654Z" fill="black"/>
<path d="M474.583 205.207V219.064H464.943V205.93C464.943 201.993 463.778 199.101 461.448 197.254C459.199 195.406 456.187 194.482 452.411 194.482C449.921 194.482 447.511 194.884 445.181 195.687C442.851 196.491 440.883 197.414 439.277 198.459V219.064H429.637V198.941C429.637 197.334 429.958 195.968 430.601 194.844C431.324 193.719 432.529 192.635 434.216 191.59C436.385 190.225 439.116 189.06 442.41 188.096C445.784 187.051 449.157 186.529 452.531 186.529C456.628 186.529 460.243 187.172 463.376 188.457C466.509 189.662 468.839 191.349 470.365 193.518C470.847 194 471.249 194.442 471.57 194.844C471.892 195.245 472.213 195.768 472.534 196.41C473.097 197.374 473.579 198.619 473.98 200.146C474.382 201.672 474.583 203.359 474.583 205.207ZM509.889 205.448V219.064H500.249V205.93C500.249 201.993 499.124 199.101 496.875 197.254C494.626 195.406 491.613 194.482 487.838 194.482C485.026 194.482 482.295 195.085 479.644 196.29C477.073 197.414 474.743 199.061 472.655 201.23L468.799 194.241C470.887 192.153 473.619 190.345 476.993 188.819C480.367 187.292 484.223 186.529 488.561 186.529C492.898 186.529 496.634 187.212 499.767 188.578C502.98 189.943 505.47 192.032 507.238 194.844C509.005 197.655 509.889 201.19 509.889 205.448ZM429.637 212.677H439.277V243.525C438.875 243.686 438.272 243.846 437.469 244.007C436.666 244.248 435.782 244.369 434.818 244.369C433.131 244.369 431.846 244.047 430.962 243.405C430.079 242.682 429.637 241.557 429.637 240.031V212.677ZM464.943 212.677H474.583V243.525C474.181 243.686 473.538 243.846 472.655 244.007C471.851 244.248 471.008 244.369 470.124 244.369C468.357 244.369 467.031 244.047 466.148 243.405C465.344 242.682 464.943 241.557 464.943 240.031V212.677ZM500.249 212.677H509.889V243.525C509.487 243.686 508.844 243.846 507.961 244.007C507.157 244.248 506.314 244.369 505.43 244.369C503.663 244.369 502.338 244.047 501.454 243.405C500.651 242.682 500.249 241.557 500.249 240.031V212.677Z" fill="black"/>
<path d="M375.465 222.076L374.983 214.485L411.374 209.545C411.053 205.126 409.526 201.511 406.795 198.7C404.064 195.808 400.288 194.362 395.468 194.362C390.487 194.362 386.35 196.169 383.057 199.784C379.843 203.319 378.237 208.42 378.237 215.087V217.738C378.799 224.165 380.888 229.065 384.503 232.439C388.198 235.733 393.219 237.38 399.565 237.38C402.939 237.38 405.992 236.817 408.723 235.693C411.454 234.568 413.623 233.363 415.23 232.078C416.113 232.64 416.796 233.323 417.278 234.126C417.841 234.849 418.122 235.693 418.122 236.657C418.122 238.183 417.238 239.629 415.471 240.995C413.784 242.28 411.494 243.324 408.602 244.128C405.791 244.931 402.618 245.333 399.083 245.333C392.897 245.333 387.515 244.208 382.936 241.959C378.438 239.709 374.943 236.376 372.453 231.957C370.043 227.459 368.838 221.996 368.838 215.569C368.838 210.991 369.481 206.934 370.766 203.399C372.132 199.784 373.979 196.732 376.309 194.241C378.719 191.751 381.571 189.863 384.864 188.578C388.158 187.212 391.733 186.529 395.589 186.529C400.489 186.529 404.787 187.574 408.482 189.662C412.258 191.751 415.19 194.683 417.278 198.459C419.447 202.154 420.532 206.412 420.532 211.232C420.532 212.999 420.13 214.284 419.327 215.087C418.523 215.81 417.399 216.252 415.953 216.413L375.465 222.076Z" fill="black"/>
<path d="M358.743 219.785H349.103V208.699C349.103 203.879 347.737 200.305 345.006 197.975C342.355 195.645 338.901 194.481 334.643 194.481C331.51 194.481 328.578 195.083 325.847 196.288C323.196 197.493 320.947 198.939 319.099 200.626L317.291 192.794C319.219 191.428 321.75 190.062 324.883 188.697C328.096 187.251 331.791 186.528 335.969 186.528C342.636 186.528 348.099 188.335 352.357 191.95C356.614 195.565 358.743 201.068 358.743 208.458V219.785ZM310.664 211.953H320.304V243.523C319.902 243.684 319.3 243.845 318.496 244.005C317.693 244.246 316.809 244.367 315.845 244.367C314.159 244.367 312.873 244.046 311.99 243.403C311.106 242.68 310.664 241.555 310.664 240.029V211.953ZM349.103 212.073L358.743 212.194V243.523C358.341 243.684 357.699 243.845 356.815 244.005C356.012 244.246 355.168 244.367 354.285 244.367C352.517 244.367 351.192 244.046 350.308 243.403C349.505 242.68 349.103 241.555 349.103 240.029V212.073ZM320.304 216.652H310.664V165.681C311.066 165.521 311.668 165.36 312.472 165.199C313.355 164.958 314.279 164.838 315.243 164.838C316.93 164.838 318.175 165.199 318.978 165.922C319.862 166.565 320.304 167.65 320.304 169.176V216.652Z" fill="black"/>
<path d="M299.59 178.575C299.59 179.62 299.228 180.584 298.505 181.467C297.863 182.271 297.1 182.873 296.216 183.275C294.208 181.829 291.757 180.463 288.866 179.178C286.054 177.893 282.399 177.25 277.9 177.25C273 177.25 268.582 178.375 264.645 180.624C260.789 182.873 257.697 186.247 255.367 190.746C253.118 195.164 251.993 200.667 251.993 207.254C251.993 217.135 254.403 224.566 259.223 229.546C264.123 234.527 270.469 237.017 278.262 237.017C282.439 237.017 286.094 236.415 289.227 235.21C292.36 234.005 294.931 232.639 296.939 231.113C297.742 231.434 298.505 232.037 299.228 232.92C299.951 233.724 300.313 234.688 300.313 235.812C300.313 236.616 300.072 237.419 299.59 238.222C299.188 238.945 298.465 239.668 297.421 240.391C295.573 241.677 293.043 242.801 289.83 243.765C286.616 244.809 282.519 245.332 277.539 245.332C270.871 245.332 264.806 243.926 259.343 241.114C253.961 238.222 249.703 233.965 246.571 228.341C243.438 222.718 241.871 215.689 241.871 207.254C241.871 198.819 243.478 191.75 246.691 186.046C249.985 180.343 254.282 176.085 259.584 173.273C264.967 170.382 270.831 168.936 277.177 168.936C281.595 168.936 285.492 169.418 288.866 170.382C292.239 171.346 294.85 172.591 296.698 174.117C298.626 175.563 299.59 177.049 299.59 178.575Z" fill="black"/>
<path d="M123.777 17.2106C123.777 11.6596 130.307 8.68379 134.496 12.3251L169.511 42.7619C170.233 41.037 171.936 39.8251 173.923 39.8251C176.563 39.8252 178.703 41.9652 178.703 44.6049C178.703 46.3542 177.762 47.8825 176.36 48.7156L200.938 70.0802C202.352 71.3095 203.163 73.0912 203.163 74.9649V181.005C203.163 185.595 203.11 189.993 202.538 194.427C195.894 245.963 151.852 285.782 98.5072 285.782C53.8785 285.782 15.759 257.912 0.603422 218.628C-1.40622 213.418 2.65945 208.109 8.24328 208.109H26.6229C30.7414 208.109 34.349 210.743 36.0988 214.471C46.4592 236.549 67.7684 250.384 96.8784 250.384C125.911 250.384 152.102 232.886 161.6 206.498C164.651 198.02 158.864 188.742 150.14 186.485C147.582 185.824 144.985 185.38 142.346 185.38H133.14C123.815 185.38 115.017 188.949 107.634 194.649C104.652 196.952 100.913 198.322 96.8497 198.322C86.9042 198.322 78.8724 190.119 79.154 180.109C79.1905 178.816 79.3728 177.554 79.6843 176.339C80.2824 173.806 81.4479 171.367 83.201 169.218C87.5203 163.922 94.2617 161.783 100.516 163.088C104.957 164.015 109.53 162.27 112.399 158.753L112.719 158.361C115.085 155.459 115.878 151.666 115.254 147.968C114.81 145.331 115.459 142.525 117.28 140.292C120.694 136.106 126.904 135.559 131.009 139.14C134.854 142.496 135.368 148.501 132.154 152.46C130.274 154.776 127.542 155.981 124.78 155.996C121.012 156.016 117.507 157.943 115.125 160.865L115.063 160.94C114.552 161.566 114.109 162.234 113.737 162.932C111.647 166.851 114.528 171.266 118.647 172.929C123.296 174.806 128.241 175.86 133.341 175.86H142.346C144.898 175.86 147.388 175.528 149.833 174.987C158.322 173.111 163.267 164.044 160.579 155.777C154.683 137.645 142.985 122.678 123.777 115.47V17.2106Z" fill="black"/>
<path d="M84.3384 214.789C87.1928 212.295 91.5267 212.595 94.0184 215.46C96.5099 218.324 96.216 222.668 93.3617 225.162C90.5072 227.656 86.1725 227.355 83.6808 224.491C81.1894 221.626 81.4842 217.283 84.3384 214.789Z" fill="black"/>
<path d="M37.9814 134.853C42.3516 129.819 50.1848 129.156 55.3541 133.375C58.3781 135.844 59.9536 139.427 59.9779 143.047C60.011 147.985 62.5317 152.582 66.3469 155.71L66.444 155.79C71.0958 159.604 77.4565 160.505 82.9976 158.19C89.791 155.352 97.7431 155.857 104.244 159.964C103.236 160.122 102.199 160.102 101.175 159.888C93.4893 158.284 85.6334 161.066 80.6733 167.147C76.4606 172.313 74.9463 179.261 76.6217 185.732C77.8222 190.369 80.6106 194.502 84.4742 197.368C88.5528 200.394 93.6267 201.814 98.7603 201.367C99.4131 201.31 100.06 201.223 100.698 201.108C93.1028 204.199 84.0974 203.139 77.2978 197.564C70.3825 191.894 67.5804 183.056 69.2721 174.861C70.4737 169.042 68.1895 163.044 63.5964 159.278L63.0832 158.858C59.2946 155.752 54.346 154.706 49.5231 155.517C46.084 156.095 42.4225 155.24 39.5076 152.85C34.0404 148.367 33.3164 140.227 37.9814 134.853Z" fill="black"/>
<path d="M41.6821 170.945C45.6725 168.206 51.1265 169.231 53.8643 173.234C56.602 177.238 55.587 182.704 51.5967 185.443C47.6063 188.182 42.1514 187.156 39.4137 183.153C36.6763 179.149 37.6921 173.684 41.6821 170.945Z" fill="black"/>
<path d="M92.1902 133.239C95.1736 130.347 99.9338 130.431 102.822 133.426C105.71 136.42 105.633 141.191 102.65 144.082C99.6662 146.973 94.906 146.89 92.0178 143.895C89.1298 140.901 89.2069 136.13 92.1902 133.239Z" fill="black"/>
<path d="M163.168 14.1332C167.128 14.1332 170.339 17.3436 170.339 21.3034C170.338 25.263 167.128 28.4728 163.168 28.4728C159.209 28.4727 155.999 25.263 155.999 21.3034C155.999 17.3437 159.209 14.1333 163.168 14.1332Z" fill="black"/>
<path d="M184.677 0.390625C189.627 0.390798 193.639 4.40311 193.639 9.35258C193.639 14.3022 189.627 18.3151 184.677 18.3153C179.728 18.3153 175.715 14.3023 175.715 9.35258C175.715 4.403 179.728 0.390625 184.677 0.390625Z" fill="black"/>
</svg>
