<svg width="628" height="286" viewBox="0 0 628 286" fill="none" xmlns="http://www.w3.org/2000/svg">
<path d="M356.471 72.9706C357.274 72.7296 358.559 72.4886 360.327 72.2476C362.094 71.9263 363.901 71.7656 365.749 71.7656C367.516 71.7656 369.083 71.8861 370.449 72.1271C371.895 72.3681 373.099 72.8501 374.063 73.5731C375.027 74.2961 375.75 75.3002 376.232 76.5856C376.714 77.7906 376.955 79.3972 376.955 81.4055V93.2144C378.964 92.411 380.852 91.8487 382.619 91.5274C384.467 91.2061 386.475 91.0454 388.644 91.0454C392.5 91.0454 396.155 91.7282 399.609 93.0939C403.063 94.4595 406.116 96.4678 408.767 99.1188C411.418 101.689 413.507 104.903 415.033 108.759C416.559 112.615 417.322 117.073 417.322 122.134C417.322 127.356 416.519 131.935 414.913 135.871C413.386 139.727 411.217 142.94 408.406 145.511C405.594 148.081 402.14 150.05 398.043 151.415C394.026 152.7 389.568 153.343 384.667 153.343C379.365 153.343 374.867 152.7 371.172 151.415C367.476 150.21 364.343 148.684 361.773 146.836C358.238 144.346 356.471 141.133 356.471 137.196V72.9706ZM384.667 137.196C388.363 137.196 391.214 135.951 393.223 133.461C395.311 130.89 396.356 127.115 396.356 122.134C396.356 117.073 395.311 113.297 393.223 110.807C391.134 108.317 388.322 107.072 384.788 107.072C383.181 107.072 381.775 107.232 380.57 107.554C379.446 107.875 378.201 108.357 376.835 109V135.268C377.719 135.831 378.763 136.313 379.968 136.714C381.253 137.036 382.82 137.196 384.667 137.196Z" fill="white"/>
<path d="M351.057 122.134C351.057 127.114 350.294 131.573 348.768 135.509C347.241 139.365 345.072 142.618 342.261 145.269C339.53 147.92 336.236 149.929 332.38 151.294C328.524 152.66 324.226 153.343 319.487 153.343C314.747 153.343 310.449 152.62 306.593 151.174C302.737 149.728 299.404 147.679 296.592 145.028C293.861 142.297 291.732 139.003 290.205 135.147C288.679 131.291 287.916 126.953 287.916 122.134C287.916 117.394 288.679 113.096 290.205 109.24C291.732 105.384 293.861 102.131 296.592 99.4798C299.404 96.7485 302.737 94.6599 306.593 93.2139C310.449 91.7679 314.747 91.0449 319.487 91.0449C324.226 91.0449 328.524 91.8081 332.38 93.3344C336.236 94.7804 339.53 96.869 342.261 99.6003C345.072 102.251 347.241 105.505 348.768 109.361C350.294 113.217 351.057 117.474 351.057 122.134ZM308.883 122.134C308.883 127.034 309.807 130.809 311.654 133.46C313.582 136.031 316.233 137.316 319.607 137.316C322.981 137.316 325.552 135.991 327.319 133.34C329.167 130.689 330.091 126.953 330.091 122.134C330.091 117.314 329.167 113.618 327.319 111.048C325.471 108.397 322.861 107.071 319.487 107.071C316.113 107.071 313.502 108.397 311.654 111.048C309.807 113.618 308.883 117.314 308.883 122.134Z" fill="white"/>
<path d="M260.428 78.3931C261.312 78.2324 262.717 78.0316 264.645 77.7906C266.573 77.4693 268.421 77.3086 270.188 77.3086C272.036 77.3086 273.643 77.4693 275.008 77.7906C276.454 78.0316 277.659 78.5136 278.623 79.2366C279.587 79.9596 280.31 80.9637 280.792 82.249C281.274 83.5344 281.515 85.2213 281.515 87.31V131.894C281.515 139.044 279.467 144.426 275.37 148.041C271.273 151.576 265.248 153.343 257.295 153.343C253.118 153.343 249.744 152.701 247.173 151.415C245.325 150.532 243.96 149.327 243.076 147.8C242.273 146.274 241.871 144.547 241.871 142.619C241.871 141.012 242.072 139.606 242.474 138.401C242.956 137.196 243.518 136.232 244.161 135.509C245.687 135.831 246.972 136.072 248.017 136.232C249.141 136.313 250.346 136.353 251.631 136.353C254.764 136.353 257.014 135.59 258.379 134.063C259.745 132.457 260.428 130.127 260.428 127.074V78.3931Z" fill="white"/>
<path d="M596.633 211.564H606.273V228.193C606.273 231.406 607.197 233.695 609.044 235.061C610.892 236.346 613.422 236.989 616.636 236.989C618.001 236.989 619.528 236.748 621.215 236.266C622.901 235.784 624.307 235.222 625.432 234.579C625.914 235.061 626.356 235.664 626.757 236.387C627.159 237.11 627.36 237.953 627.36 238.917C627.36 240.684 626.316 242.13 624.227 243.255C622.138 244.38 619.246 244.942 615.551 244.942C609.928 244.942 605.349 243.697 601.814 241.207C598.36 238.716 596.633 234.579 596.633 228.795V211.564ZM601.573 196.863V188.91H626.034C626.275 189.231 626.516 189.754 626.757 190.477C626.998 191.2 627.119 191.963 627.119 192.766C627.119 194.051 626.798 195.056 626.155 195.779C625.512 196.502 624.629 196.863 623.504 196.863H601.573ZM606.273 215.179H596.633V171.558C597.034 171.398 597.637 171.237 598.44 171.076C599.324 170.835 600.248 170.715 601.212 170.715C602.899 170.715 604.144 171.076 604.947 171.799C605.831 172.442 606.273 173.526 606.273 175.053V215.179Z" fill="white"/>
<path d="M586.718 228.554C586.718 233.695 584.831 237.712 581.055 240.604C577.279 243.496 571.817 244.942 564.667 244.942C558.562 244.942 553.581 244.018 549.725 242.171C545.869 240.243 543.941 238.154 543.941 235.905C543.941 234.941 544.182 234.017 544.664 233.133C545.227 232.169 546.03 231.406 547.074 230.844C549.243 232.37 551.774 233.776 554.666 235.061C557.558 236.346 560.851 236.989 564.547 236.989C572.901 236.989 577.079 234.177 577.079 228.554C577.079 226.225 576.356 224.337 574.91 222.891C573.544 221.364 571.495 220.28 568.764 219.637L558.763 216.986C553.862 215.781 550.288 213.934 548.038 211.443C545.789 208.873 544.664 205.7 544.664 201.924C544.664 197.666 546.392 193.971 549.846 190.838C553.3 187.705 558.562 186.139 565.631 186.139C569.407 186.139 572.7 186.54 575.512 187.344C578.324 188.067 580.493 189.071 582.019 190.356C583.626 191.561 584.429 192.887 584.429 194.333C584.429 195.377 584.148 196.301 583.585 197.104C583.103 197.907 582.421 198.51 581.537 198.912C580.573 198.269 579.328 197.586 577.802 196.863C576.356 196.06 574.628 195.417 572.62 194.935C570.612 194.373 568.403 194.092 565.993 194.092C562.458 194.092 559.606 194.774 557.437 196.14C555.268 197.506 554.184 199.434 554.184 201.924C554.184 203.691 554.786 205.258 555.991 206.623C557.277 207.909 559.285 208.873 562.016 209.515L570.331 211.564C575.793 212.849 579.89 214.898 582.621 217.709C585.353 220.441 586.718 224.056 586.718 228.554Z" fill="white"/>
<path d="M522.35 170.113C522.35 168.426 522.952 167.02 524.157 165.895C525.362 164.69 526.848 164.088 528.616 164.088C530.463 164.088 531.949 164.69 533.074 165.895C534.199 167.02 534.761 168.426 534.761 170.113C534.761 171.8 534.199 173.246 533.074 174.451C531.949 175.575 530.463 176.138 528.616 176.138C526.848 176.138 525.362 175.575 524.157 174.451C522.952 173.246 522.35 171.8 522.35 170.113ZM523.796 211.564H533.435V243.135C533.034 243.296 532.431 243.456 531.628 243.617C530.825 243.858 529.941 243.978 528.977 243.978C527.29 243.978 526.005 243.657 525.121 243.014C524.237 242.291 523.796 241.167 523.796 239.64V211.564ZM533.435 216.264H523.796V187.947C524.197 187.786 524.8 187.625 525.603 187.465C526.487 187.224 527.411 187.103 528.375 187.103C530.062 187.103 531.307 187.465 532.11 188.188C532.994 188.83 533.435 189.955 533.435 191.562V216.264Z" fill="white"/>
<path d="M474.583 204.816V218.673H464.943V205.539C464.943 201.603 463.778 198.711 461.448 196.863C459.199 195.015 456.187 194.092 452.411 194.092C449.921 194.092 447.511 194.493 445.181 195.297C442.851 196.1 440.883 197.024 439.277 198.068V218.673H429.637V198.55C429.637 196.943 429.958 195.578 430.601 194.453C431.324 193.328 432.529 192.244 434.216 191.2C436.385 189.834 439.116 188.669 442.41 187.705C445.784 186.661 449.157 186.139 452.531 186.139C456.628 186.139 460.243 186.781 463.376 188.067C466.509 189.272 468.839 190.959 470.365 193.128C470.847 193.61 471.249 194.051 471.57 194.453C471.892 194.855 472.213 195.377 472.534 196.02C473.097 196.984 473.579 198.229 473.98 199.755C474.382 201.281 474.583 202.968 474.583 204.816ZM509.889 205.057V218.673H500.249V205.539C500.249 201.603 499.124 198.711 496.875 196.863C494.626 195.015 491.613 194.092 487.838 194.092C485.026 194.092 482.295 194.694 479.644 195.899C477.073 197.024 474.743 198.671 472.655 200.839L468.799 193.851C470.887 191.762 473.619 189.954 476.993 188.428C480.367 186.902 484.223 186.139 488.561 186.139C492.898 186.139 496.634 186.821 499.767 188.187C502.98 189.553 505.47 191.641 507.238 194.453C509.005 197.265 509.889 200.799 509.889 205.057ZM429.637 212.287H439.277V243.134C438.875 243.295 438.272 243.456 437.469 243.616C436.666 243.857 435.782 243.978 434.818 243.978C433.131 243.978 431.846 243.657 430.962 243.014C430.079 242.291 429.637 241.166 429.637 239.64V212.287ZM464.943 212.287H474.583V243.134C474.181 243.295 473.538 243.456 472.655 243.616C471.851 243.857 471.008 243.978 470.124 243.978C468.357 243.978 467.031 243.657 466.148 243.014C465.344 242.291 464.943 241.166 464.943 239.64V212.287ZM500.249 212.287H509.889V243.134C509.487 243.295 508.844 243.456 507.961 243.616C507.157 243.857 506.314 243.978 505.43 243.978C503.663 243.978 502.338 243.657 501.454 243.014C500.651 242.291 500.249 241.166 500.249 239.64V212.287Z" fill="white"/>
<path d="M375.465 221.686L374.983 214.094L411.374 209.154C411.053 204.736 409.526 201.121 406.795 198.309C404.064 195.417 400.288 193.971 395.468 193.971C390.487 193.971 386.35 195.779 383.057 199.394C379.843 202.928 378.237 208.029 378.237 214.697V217.348C378.799 223.774 380.888 228.675 384.503 232.049C388.198 235.342 393.219 236.989 399.565 236.989C402.939 236.989 405.992 236.427 408.723 235.302C411.454 234.177 413.623 232.972 415.23 231.687C416.113 232.249 416.796 232.932 417.278 233.736C417.841 234.459 418.122 235.302 418.122 236.266C418.122 237.792 417.238 239.238 415.471 240.604C413.784 241.889 411.494 242.934 408.602 243.737C405.791 244.54 402.618 244.942 399.083 244.942C392.897 244.942 387.515 243.817 382.936 241.568C378.438 239.319 374.943 235.985 372.453 231.567C370.043 227.068 368.838 221.605 368.838 215.179C368.838 210.6 369.481 206.543 370.766 203.008C372.132 199.394 373.979 196.341 376.309 193.851C378.719 191.36 381.571 189.472 384.864 188.187C388.158 186.821 391.733 186.139 395.589 186.139C400.489 186.139 404.787 187.183 408.482 189.272C412.258 191.36 415.19 194.292 417.278 198.068C419.447 201.763 420.532 206.021 420.532 210.841C420.532 212.608 420.13 213.894 419.327 214.697C418.523 215.42 417.399 215.862 415.953 216.022L375.465 221.686Z" fill="white"/>
<path d="M358.743 219.395H349.103V208.309C349.103 203.489 347.737 199.914 345.006 197.584C342.355 195.255 338.901 194.09 334.643 194.09C331.51 194.09 328.578 194.692 325.847 195.897C323.196 197.102 320.947 198.548 319.099 200.235L317.291 192.403C319.219 191.037 321.75 189.672 324.883 188.306C328.096 186.86 331.791 186.137 335.969 186.137C342.636 186.137 348.099 187.944 352.357 191.559C356.614 195.174 358.743 200.677 358.743 208.068V219.395ZM310.664 211.562H320.304V243.133C319.902 243.293 319.3 243.454 318.496 243.615C317.693 243.856 316.809 243.976 315.845 243.976C314.159 243.976 312.873 243.655 311.99 243.012C311.106 242.289 310.664 241.165 310.664 239.638V211.562ZM349.103 211.683L358.743 211.803V243.133C358.341 243.293 357.699 243.454 356.815 243.615C356.012 243.856 355.168 243.976 354.285 243.976C352.517 243.976 351.192 243.655 350.308 243.012C349.505 242.289 349.103 241.165 349.103 239.638V211.683ZM320.304 216.262H310.664V165.291C311.066 165.13 311.668 164.969 312.472 164.809C313.355 164.568 314.279 164.447 315.243 164.447C316.93 164.447 318.175 164.809 318.978 165.532C319.862 166.174 320.304 167.259 320.304 168.785V216.262Z" fill="white"/>
<path d="M299.59 178.185C299.59 179.229 299.228 180.193 298.505 181.077C297.863 181.88 297.1 182.483 296.216 182.884C294.208 181.438 291.757 180.073 288.866 178.787C286.054 177.502 282.399 176.859 277.9 176.859C273 176.859 268.582 177.984 264.645 180.233C260.789 182.483 257.697 185.857 255.367 190.355C253.118 194.773 251.993 200.276 251.993 206.863C251.993 216.744 254.403 224.175 259.223 229.156C264.123 234.136 270.469 236.627 278.262 236.627C282.439 236.627 286.094 236.024 289.227 234.819C292.36 233.614 294.931 232.248 296.939 230.722C297.742 231.044 298.505 231.646 299.228 232.53C299.951 233.333 300.313 234.297 300.313 235.422C300.313 236.225 300.072 237.028 299.59 237.832C299.188 238.555 298.465 239.278 297.421 240.001C295.573 241.286 293.043 242.411 289.83 243.375C286.616 244.419 282.519 244.941 277.539 244.941C270.871 244.941 264.806 243.535 259.343 240.724C253.961 237.832 249.703 233.574 246.571 227.951C243.438 222.327 241.871 215.298 241.871 206.863C241.871 198.429 243.478 191.359 246.691 185.656C249.985 179.952 254.282 175.695 259.584 172.883C264.967 169.991 270.831 168.545 277.177 168.545C281.595 168.545 285.492 169.027 288.866 169.991C292.239 170.955 294.85 172.2 296.698 173.726C298.626 175.172 299.59 176.658 299.59 178.185Z" fill="white"/>
<path d="M123.777 16.82C123.777 11.269 130.307 8.29316 134.496 11.9345L169.511 42.3713C170.233 40.6464 171.936 39.4345 173.923 39.4345C176.563 39.4346 178.703 41.5746 178.703 44.2143C178.703 45.9636 177.762 47.4919 176.36 48.325L200.938 69.6896C202.352 70.9188 203.163 72.7006 203.163 74.5743V180.615C203.163 185.204 203.11 189.603 202.538 194.037C195.894 245.573 151.852 285.391 98.5072 285.391C53.8785 285.391 15.759 257.522 0.603422 218.237C-1.40622 213.028 2.65945 207.719 8.24328 207.719H26.6229C30.7414 207.719 34.349 210.352 36.0988 214.081C46.4592 236.158 67.7684 249.994 96.8784 249.994C125.911 249.994 152.102 232.495 161.6 206.108C164.651 197.629 158.864 188.351 150.14 186.095C147.582 185.433 144.985 184.989 142.346 184.989H133.14C123.815 184.989 115.017 188.558 107.634 194.258C104.652 196.561 100.913 197.931 96.8497 197.932C86.9042 197.932 78.8724 189.728 79.154 179.718C79.1905 178.426 79.3728 177.163 79.6843 175.948C80.2824 173.416 81.4479 170.977 83.201 168.827C87.5203 163.531 94.2617 161.392 100.516 162.698C104.957 163.625 109.53 161.879 112.399 158.362L112.719 157.97C115.085 155.069 115.878 151.276 115.254 147.577C114.81 144.94 115.459 142.134 117.28 139.902C120.694 135.715 126.904 135.168 131.009 138.75C134.854 142.105 135.368 148.11 132.154 152.069C130.274 154.385 127.542 155.59 124.78 155.605C121.012 155.626 117.507 157.553 115.125 160.474L115.063 160.549C114.552 161.176 114.109 161.843 113.737 162.541C111.647 166.46 114.528 170.876 118.647 172.539C123.296 174.415 128.241 175.469 133.341 175.469H142.346C144.898 175.469 147.388 175.137 149.833 174.597C158.322 172.72 163.267 163.654 160.579 155.386C154.683 137.254 142.985 122.287 123.777 115.079V16.82Z" fill="url(#paint0_linear_557_6912)"/>
<path d="M84.3384 214.398C87.1928 211.904 91.5267 212.205 94.0184 215.069C96.5099 217.934 96.216 222.278 93.3617 224.772C90.5072 227.265 86.1725 226.965 83.6808 224.1C81.1894 221.236 81.4842 216.892 84.3384 214.398Z" fill="url(#paint1_linear_557_6912)"/>
<path d="M37.9814 134.463C42.3516 129.429 50.1848 128.766 55.3541 132.985C58.3781 135.453 59.9536 139.036 59.9779 142.657C60.011 147.594 62.5317 152.191 66.3469 155.32L66.444 155.4C71.0958 159.213 77.4565 160.114 82.9976 157.799C89.791 154.961 97.7431 155.466 104.244 159.573C103.236 159.731 102.199 159.711 101.175 159.498C93.4893 157.894 85.6334 160.675 80.6733 166.756C76.4606 171.922 74.9463 178.87 76.6217 185.342C77.8222 189.979 80.6106 194.111 84.4742 196.977C88.5528 200.003 93.6267 201.423 98.7603 200.976C99.4131 200.919 100.06 200.832 100.698 200.717C93.1028 203.808 84.0974 202.749 77.2978 197.174C70.3825 191.504 67.5804 182.665 69.2721 174.471C70.4737 168.651 68.1895 162.654 63.5964 158.888L63.0832 158.468C59.2946 155.361 54.346 154.315 49.5231 155.126C46.084 155.704 42.4225 154.849 39.5076 152.46C34.0404 147.977 33.3164 139.837 37.9814 134.463Z" fill="url(#paint2_linear_557_6912)"/>
<path d="M41.6821 170.554C45.6725 167.815 51.1265 168.84 53.8643 172.844C56.602 176.847 55.587 182.313 51.5967 185.052C47.6063 187.791 42.1514 186.766 39.4137 182.762C36.6763 178.759 37.6921 173.293 41.6821 170.554Z" fill="url(#paint3_linear_557_6912)"/>
<path d="M92.1902 132.848C95.1736 129.957 99.9338 130.041 102.822 133.035C105.71 136.029 105.633 140.801 102.65 143.692C99.6662 146.583 94.906 146.499 92.0178 143.505C89.1298 140.51 89.2069 135.739 92.1902 132.848Z" fill="url(#paint4_linear_557_6912)"/>
<path d="M163.168 13.7426C167.128 13.7426 170.339 16.953 170.339 20.9128C170.338 24.8724 167.128 28.0822 163.168 28.0822C159.209 28.0821 155.999 24.8723 155.999 20.9128C155.999 16.9531 159.209 13.7427 163.168 13.7426Z" fill="url(#paint5_linear_557_6912)"/>
<path d="M184.677 0C189.627 0.000172897 193.639 4.01248 193.639 8.96195C193.639 13.9116 189.627 17.9245 184.677 17.9247C179.728 17.9247 175.715 13.9117 175.715 8.96195C175.715 4.01237 179.728 0 184.677 0Z" fill="url(#paint6_linear_557_6912)"/>
<defs>
<linearGradient id="paint0_linear_557_6912" x1="120.395" y1="-17.9868" x2="-21.6153" y2="253.395" gradientUnits="userSpaceOnUse">
<stop stop-color="#DBFF4D"/>
<stop offset="1" stop-color="#87A800"/>
</linearGradient>
<linearGradient id="paint1_linear_557_6912" x1="120.395" y1="-17.9868" x2="-21.6153" y2="253.395" gradientUnits="userSpaceOnUse">
<stop stop-color="#DBFF4D"/>
<stop offset="1" stop-color="#87A800"/>
</linearGradient>
<linearGradient id="paint2_linear_557_6912" x1="120.395" y1="-17.9868" x2="-21.6153" y2="253.395" gradientUnits="userSpaceOnUse">
<stop stop-color="#DBFF4D"/>
<stop offset="1" stop-color="#87A800"/>
</linearGradient>
<linearGradient id="paint3_linear_557_6912" x1="120.395" y1="-17.9868" x2="-21.6153" y2="253.395" gradientUnits="userSpaceOnUse">
<stop stop-color="#DBFF4D"/>
<stop offset="1" stop-color="#87A800"/>
</linearGradient>
<linearGradient id="paint4_linear_557_6912" x1="120.395" y1="-17.9868" x2="-21.6153" y2="253.395" gradientUnits="userSpaceOnUse">
<stop stop-color="#DBFF4D"/>
<stop offset="1" stop-color="#87A800"/>
</linearGradient>
<linearGradient id="paint5_linear_557_6912" x1="120.395" y1="-17.9868" x2="-21.6153" y2="253.395" gradientUnits="userSpaceOnUse">
<stop stop-color="#DBFF4D"/>
<stop offset="1" stop-color="#87A800"/>
</linearGradient>
<linearGradient id="paint6_linear_557_6912" x1="120.395" y1="-17.9868" x2="-21.6153" y2="253.395" gradientUnits="userSpaceOnUse">
<stop stop-color="#DBFF4D"/>
<stop offset="1" stop-color="#87A800"/>
</linearGradient>
</defs>
</svg>
