<svg width="628" height="287" viewBox="0 0 628 287" fill="none" xmlns="http://www.w3.org/2000/svg">
<path d="M356.471 73.7519C357.274 73.5109 358.559 73.2699 360.327 73.0289C362.094 72.7075 363.901 72.5469 365.749 72.5469C367.516 72.5469 369.083 72.6674 370.449 72.9084C371.895 73.1494 373.099 73.6314 374.063 74.3544C375.027 75.0773 375.75 76.0815 376.232 77.3668C376.714 78.5718 376.955 80.1785 376.955 82.1868V93.9956C378.964 93.1923 380.852 92.63 382.619 92.3086C384.467 91.9873 386.475 91.8266 388.644 91.8266C392.5 91.8266 396.155 92.5095 399.609 93.8751C403.063 95.2408 406.116 97.2491 408.767 99.9C411.418 102.471 413.507 105.684 415.033 109.54C416.559 113.396 417.322 117.854 417.322 122.915C417.322 128.137 416.519 132.716 414.913 136.652C413.386 140.508 411.217 143.721 408.406 146.292C405.594 148.863 402.14 150.831 398.043 152.196C394.026 153.482 389.568 154.124 384.667 154.124C379.365 154.124 374.867 153.482 371.172 152.196C367.476 150.991 364.343 149.465 361.773 147.617C358.238 145.127 356.471 141.914 356.471 137.978V73.7519ZM384.667 137.978C388.363 137.978 391.214 136.732 393.223 134.242C395.311 131.671 396.356 127.896 396.356 122.915C396.356 117.854 395.311 114.079 393.223 111.588C391.134 109.098 388.322 107.853 384.788 107.853C383.181 107.853 381.775 108.014 380.57 108.335C379.446 108.656 378.201 109.138 376.835 109.781V136.05C377.719 136.612 378.763 137.094 379.968 137.496C381.253 137.817 382.82 137.978 384.667 137.978Z" fill="black"/>
<path d="M351.057 122.915C351.057 127.895 350.294 132.354 348.768 136.29C347.241 140.146 345.072 143.4 342.261 146.051C339.53 148.702 336.236 150.71 332.38 152.075C328.524 153.441 324.226 154.124 319.487 154.124C314.747 154.124 310.449 153.401 306.593 151.955C302.737 150.509 299.404 148.461 296.592 145.81C293.861 143.078 291.732 139.785 290.205 135.929C288.679 132.073 287.916 127.735 287.916 122.915C287.916 118.175 288.679 113.877 290.205 110.021C291.732 106.166 293.861 102.912 296.592 100.261C299.404 97.5298 302.737 95.4411 306.593 93.9951C310.449 92.5492 314.747 91.8262 319.487 91.8262C324.226 91.8262 328.524 92.5893 332.38 94.1156C336.236 95.5616 339.53 97.6503 342.261 100.382C345.072 103.033 347.241 106.286 348.768 110.142C350.294 113.998 351.057 118.256 351.057 122.915ZM308.883 122.915C308.883 127.815 309.807 131.591 311.654 134.242C313.582 136.812 316.233 138.098 319.607 138.098C322.981 138.098 325.552 136.772 327.319 134.121C329.167 131.47 330.091 127.735 330.091 122.915C330.091 118.095 329.167 114.4 327.319 111.829C325.471 109.178 322.861 107.852 319.487 107.852C316.113 107.852 313.502 109.178 311.654 111.829C309.807 114.4 308.883 118.095 308.883 122.915Z" fill="black"/>
<path d="M260.428 79.1743C261.312 79.0137 262.717 78.8128 264.645 78.5718C266.573 78.2505 268.421 78.0898 270.188 78.0898C272.036 78.0898 273.643 78.2505 275.008 78.5718C276.454 78.8128 277.659 79.2948 278.623 80.0178C279.587 80.7408 280.31 81.745 280.792 83.0303C281.274 84.3156 281.515 86.0026 281.515 88.0912V132.676C281.515 139.825 279.467 145.208 275.37 148.822C271.273 152.357 265.248 154.124 257.295 154.124C253.118 154.124 249.744 153.482 247.173 152.196C245.325 151.313 243.96 150.108 243.076 148.582C242.273 147.055 241.871 145.328 241.871 143.4C241.871 141.793 242.072 140.388 242.474 139.183C242.956 137.978 243.518 137.014 244.161 136.291C245.687 136.612 246.972 136.853 248.017 137.014C249.141 137.094 250.346 137.134 251.631 137.134C254.764 137.134 257.014 136.371 258.379 134.845C259.745 133.238 260.428 130.908 260.428 127.856V79.1743Z" fill="black"/>
<path d="M596.633 212.345H606.273V228.974C606.273 232.187 607.197 234.477 609.044 235.842C610.892 237.128 613.422 237.77 616.636 237.77C618.001 237.77 619.528 237.529 621.215 237.047C622.901 236.565 624.307 236.003 625.432 235.36C625.914 235.842 626.356 236.445 626.757 237.168C627.159 237.891 627.36 238.734 627.36 239.698C627.36 241.466 626.316 242.912 624.227 244.036C622.138 245.161 619.246 245.723 615.551 245.723C609.928 245.723 605.349 244.478 601.814 241.988C598.36 239.497 596.633 235.36 596.633 229.576V212.345ZM601.573 197.644V189.691H626.034C626.275 190.013 626.516 190.535 626.757 191.258C626.998 191.981 627.119 192.744 627.119 193.547C627.119 194.833 626.798 195.837 626.155 196.56C625.512 197.283 624.629 197.644 623.504 197.644H601.573ZM606.273 215.96H596.633V172.34C597.034 172.179 597.637 172.018 598.44 171.858C599.324 171.617 600.248 171.496 601.212 171.496C602.899 171.496 604.144 171.858 604.947 172.581C605.831 173.223 606.273 174.308 606.273 175.834V215.96Z" fill="black"/>
<path d="M586.718 229.335C586.718 234.477 584.831 238.493 581.055 241.385C577.279 244.277 571.817 245.723 564.667 245.723C558.562 245.723 553.581 244.799 549.725 242.952C545.869 241.024 543.941 238.935 543.941 236.686C543.941 235.722 544.182 234.798 544.664 233.914C545.227 232.95 546.03 232.187 547.074 231.625C549.243 233.151 551.774 234.557 554.666 235.842C557.558 237.128 560.851 237.77 564.547 237.77C572.901 237.77 577.079 234.959 577.079 229.335C577.079 227.006 576.356 225.118 574.91 223.672C573.544 222.146 571.495 221.061 568.764 220.419L558.763 217.768C553.862 216.563 550.288 214.715 548.038 212.225C545.789 209.654 544.664 206.481 544.664 202.705C544.664 198.448 546.392 194.752 549.846 191.619C553.3 188.486 558.562 186.92 565.631 186.92C569.407 186.92 572.7 187.322 575.512 188.125C578.324 188.848 580.493 189.852 582.019 191.137C583.626 192.342 584.429 193.668 584.429 195.114C584.429 196.158 584.148 197.082 583.585 197.885C583.103 198.689 582.421 199.291 581.537 199.693C580.573 199.05 579.328 198.367 577.802 197.644C576.356 196.841 574.628 196.198 572.62 195.716C570.612 195.154 568.403 194.873 565.993 194.873C562.458 194.873 559.606 195.556 557.437 196.921C555.268 198.287 554.184 200.215 554.184 202.705C554.184 204.473 554.786 206.039 555.991 207.405C557.277 208.69 559.285 209.654 562.016 210.297L570.331 212.345C575.793 213.63 579.89 215.679 582.621 218.491C585.353 221.222 586.718 224.837 586.718 229.335Z" fill="black"/>
<path d="M522.35 170.894C522.35 169.207 522.952 167.801 524.157 166.677C525.362 165.472 526.848 164.869 528.616 164.869C530.463 164.869 531.949 165.472 533.074 166.677C534.199 167.801 534.761 169.207 534.761 170.894C534.761 172.581 534.199 174.027 533.074 175.232C531.949 176.357 530.463 176.919 528.616 176.919C526.848 176.919 525.362 176.357 524.157 175.232C522.952 174.027 522.35 172.581 522.35 170.894ZM523.796 212.346H533.435V243.916C533.034 244.077 532.431 244.238 531.628 244.398C530.825 244.639 529.941 244.76 528.977 244.76C527.29 244.76 526.005 244.438 525.121 243.796C524.237 243.073 523.796 241.948 523.796 240.422V212.346ZM533.435 217.045H523.796V188.728C524.197 188.567 524.8 188.407 525.603 188.246C526.487 188.005 527.411 187.884 528.375 187.884C530.062 187.884 531.307 188.246 532.11 188.969C532.994 189.612 533.435 190.736 533.435 192.343V217.045Z" fill="black"/>
<path d="M474.583 205.597V219.455H464.943V206.32C464.943 202.384 463.778 199.492 461.448 197.644C459.199 195.797 456.187 194.873 452.411 194.873C449.921 194.873 447.511 195.274 445.181 196.078C442.851 196.881 440.883 197.805 439.277 198.849V219.455H429.637V199.331C429.637 197.725 429.958 196.359 430.601 195.234C431.324 194.11 432.529 193.025 434.216 191.981C436.385 190.615 439.116 189.45 442.41 188.486C445.784 187.442 449.157 186.92 452.531 186.92C456.628 186.92 460.243 187.563 463.376 188.848C466.509 190.053 468.839 191.74 470.365 193.909C470.847 194.391 471.249 194.833 471.57 195.234C471.892 195.636 472.213 196.158 472.534 196.801C473.097 197.765 473.579 199.01 473.98 200.536C474.382 202.063 474.583 203.75 474.583 205.597ZM509.889 205.838V219.455H500.249V206.32C500.249 202.384 499.124 199.492 496.875 197.644C494.626 195.797 491.613 194.873 487.838 194.873C485.026 194.873 482.295 195.475 479.644 196.68C477.073 197.805 474.743 199.452 472.655 201.621L468.799 194.632C470.887 192.543 473.619 190.736 476.993 189.209C480.367 187.683 484.223 186.92 488.561 186.92C492.898 186.92 496.634 187.603 499.767 188.968C502.98 190.334 505.47 192.423 507.238 195.234C509.005 198.046 509.889 201.581 509.889 205.838ZM429.637 213.068H439.277V243.916C438.875 244.076 438.272 244.237 437.469 244.398C436.666 244.639 435.782 244.759 434.818 244.759C433.131 244.759 431.846 244.438 430.962 243.795C430.079 243.072 429.637 241.948 429.637 240.421V213.068ZM464.943 213.068H474.583V243.916C474.181 244.076 473.538 244.237 472.655 244.398C471.851 244.639 471.008 244.759 470.124 244.759C468.357 244.759 467.031 244.438 466.148 243.795C465.344 243.072 464.943 241.948 464.943 240.421V213.068ZM500.249 213.068H509.889V243.916C509.487 244.076 508.844 244.237 507.961 244.398C507.157 244.639 506.314 244.759 505.43 244.759C503.663 244.759 502.338 244.438 501.454 243.795C500.651 243.072 500.249 241.948 500.249 240.421V213.068Z" fill="black"/>
<path d="M375.465 222.467L374.983 214.876L411.374 209.935C411.053 205.517 409.526 201.902 406.795 199.09C404.064 196.198 400.288 194.752 395.468 194.752C390.487 194.752 386.35 196.56 383.057 200.175C379.843 203.709 378.237 208.81 378.237 215.478V218.129C378.799 224.556 380.888 229.456 384.503 232.83C388.198 236.123 393.219 237.77 399.565 237.77C402.939 237.77 405.992 237.208 408.723 236.083C411.454 234.959 413.623 233.754 415.23 232.468C416.113 233.031 416.796 233.714 417.278 234.517C417.841 235.24 418.122 236.083 418.122 237.047C418.122 238.574 417.238 240.02 415.471 241.385C413.784 242.671 411.494 243.715 408.602 244.518C405.791 245.322 402.618 245.723 399.083 245.723C392.897 245.723 387.515 244.599 382.936 242.349C378.438 240.1 374.943 236.766 372.453 232.348C370.043 227.849 368.838 222.387 368.838 215.96C368.838 211.381 369.481 207.324 370.766 203.79C372.132 200.175 373.979 197.122 376.309 194.632C378.719 192.142 381.571 190.254 384.864 188.968C388.158 187.603 391.733 186.92 395.589 186.92C400.489 186.92 404.787 187.964 408.482 190.053C412.258 192.142 415.19 195.074 417.278 198.849C419.447 202.545 420.532 206.802 420.532 211.622C420.532 213.389 420.13 214.675 419.327 215.478C418.523 216.201 417.399 216.643 415.953 216.804L375.465 222.467Z" fill="black"/>
<path d="M358.743 220.178H349.103V209.092C349.103 204.272 347.737 200.697 345.006 198.368C342.355 196.038 338.901 194.873 334.643 194.873C331.51 194.873 328.578 195.476 325.847 196.681C323.196 197.886 320.947 199.332 319.099 201.019L317.291 193.186C319.219 191.82 321.75 190.455 324.883 189.089C328.096 187.643 331.791 186.92 335.969 186.92C342.636 186.92 348.099 188.728 352.357 192.343C356.614 195.958 358.743 201.46 358.743 208.851V220.178ZM310.664 212.345H320.304V243.916C319.902 244.077 319.3 244.237 318.496 244.398C317.693 244.639 316.809 244.76 315.845 244.76C314.159 244.76 312.873 244.438 311.99 243.796C311.106 243.073 310.664 241.948 310.664 240.422V212.345ZM349.103 212.466L358.743 212.586V243.916C358.341 244.077 357.699 244.237 356.815 244.398C356.012 244.639 355.168 244.76 354.285 244.76C352.517 244.76 351.192 244.438 350.308 243.796C349.505 243.073 349.103 241.948 349.103 240.422V212.466ZM320.304 217.045H310.664V166.074C311.066 165.913 311.668 165.753 312.472 165.592C313.355 165.351 314.279 165.23 315.243 165.23C316.93 165.23 318.175 165.592 318.978 166.315C319.862 166.958 320.304 168.042 320.304 169.568V217.045Z" fill="black"/>
<path d="M299.59 178.966C299.59 180.01 299.228 180.974 298.505 181.858C297.863 182.661 297.1 183.264 296.216 183.666C294.208 182.22 291.757 180.854 288.866 179.569C286.054 178.283 282.399 177.641 277.9 177.641C273 177.641 268.582 178.765 264.645 181.015C260.789 183.264 257.697 186.638 255.367 191.136C253.118 195.555 251.993 201.057 251.993 207.645C251.993 217.526 254.403 224.956 259.223 229.937C264.123 234.918 270.469 237.408 278.262 237.408C282.439 237.408 286.094 236.805 289.227 235.6C292.36 234.395 294.931 233.03 296.939 231.503C297.742 231.825 298.505 232.427 299.228 233.311C299.951 234.114 300.313 235.078 300.313 236.203C300.313 237.006 300.072 237.81 299.59 238.613C299.188 239.336 298.465 240.059 297.421 240.782C295.573 242.067 293.043 243.192 289.83 244.156C286.616 245.2 282.519 245.722 277.539 245.722C270.871 245.722 264.806 244.316 259.343 241.505C253.961 238.613 249.703 234.355 246.571 228.732C243.438 223.109 241.871 216.08 241.871 207.645C241.871 199.21 243.478 192.141 246.691 186.437C249.985 180.733 254.282 176.476 259.584 173.664C264.967 170.772 270.831 169.326 277.177 169.326C281.595 169.326 285.492 169.808 288.866 170.772C292.239 171.736 294.85 172.981 296.698 174.508C298.626 175.954 299.59 177.44 299.59 178.966Z" fill="black"/>
<path d="M123.777 17.6012C123.777 12.0502 130.307 9.07441 134.496 12.7158L169.511 43.1526C170.233 41.4277 171.936 40.2157 173.923 40.2157C176.563 40.2158 178.703 42.3558 178.703 44.9956C178.703 46.7449 177.762 48.2731 176.36 49.1062L200.938 70.4708C202.352 71.7001 203.163 73.4818 203.163 75.3555V181.396C203.163 185.986 203.11 190.384 202.538 194.818C195.894 246.354 151.852 286.172 98.5072 286.173C53.8785 286.173 15.759 258.303 0.603422 219.018C-1.40622 213.809 2.65945 208.5 8.24328 208.5H26.6229C30.7414 208.5 34.349 211.134 36.0988 214.862C46.4592 236.94 67.7684 250.775 96.8784 250.775C125.911 250.775 152.102 233.277 161.6 206.889C164.651 198.41 158.864 189.133 150.14 186.876C147.582 186.214 144.985 185.771 142.346 185.771H133.14C123.815 185.771 115.017 189.34 107.634 195.039C104.652 197.342 100.913 198.713 96.8497 198.713C86.9042 198.713 78.8724 190.51 79.154 180.499C79.1905 179.207 79.3728 177.944 79.6843 176.729C80.2824 174.197 81.4479 171.758 83.201 169.608C87.5203 164.312 94.2617 162.174 100.516 163.479C104.957 164.406 109.53 162.66 112.399 159.143L112.719 158.751C115.085 155.85 115.878 152.057 115.254 148.358C114.81 145.721 115.459 142.915 117.28 140.683C120.694 136.496 126.904 135.949 131.009 139.531C134.854 142.886 135.368 148.892 132.154 152.85C130.274 155.166 127.542 156.372 124.78 156.387C121.012 156.407 117.507 158.334 115.125 161.256L115.063 161.33C114.552 161.957 114.109 162.625 113.737 163.322C111.647 167.241 114.528 171.657 118.647 173.32C123.296 175.197 128.241 176.25 133.341 176.25H142.346C144.898 176.25 147.388 175.919 149.833 175.378C158.322 173.501 163.267 164.435 160.579 156.168C154.683 138.036 142.985 123.069 123.777 115.861V17.6012Z" fill="url(#paint0_linear_557_6892)"/>
<path d="M84.3384 215.18C87.1928 212.686 91.5267 212.986 94.0184 215.85C96.5099 218.715 96.216 223.059 93.3617 225.553C90.5072 228.047 86.1725 227.746 83.6808 224.881C81.1894 222.017 81.4842 217.673 84.3384 215.18Z" fill="url(#paint1_linear_557_6892)"/>
<path d="M37.9814 135.244C42.3516 130.21 50.1848 129.547 55.3541 133.766C58.3781 136.234 59.9536 139.818 59.9779 143.438C60.011 148.376 62.5317 152.973 66.3469 156.101L66.444 156.181C71.0958 159.995 77.4565 160.895 82.9976 158.58C89.791 155.742 97.7431 156.248 104.244 160.354C103.236 160.512 102.199 160.493 101.175 160.279C93.4893 158.675 85.6334 161.456 80.6733 167.538C76.4606 172.703 74.9463 179.651 76.6217 186.123C77.8222 190.76 80.6106 194.892 84.4742 197.759C88.5528 200.784 93.6267 202.204 98.7603 201.758C99.4131 201.701 100.06 201.613 100.698 201.498C93.1028 204.59 84.0974 203.53 77.2978 197.955C70.3825 192.285 67.5804 183.446 69.2721 175.252C70.4737 169.433 68.1895 163.435 63.5964 159.669L63.0832 159.249C59.2946 156.143 54.346 155.097 49.5231 155.908C46.084 156.486 42.4225 155.631 39.5076 153.241C34.0404 148.758 33.3164 140.618 37.9814 135.244Z" fill="url(#paint2_linear_557_6892)"/>
<path d="M41.6821 171.336C45.6725 168.597 51.1265 169.621 53.8643 173.625C56.602 177.628 55.587 183.094 51.5967 185.833C47.6063 188.572 42.1514 187.547 39.4137 183.543C36.6763 179.54 37.6921 174.075 41.6821 171.336Z" fill="url(#paint3_linear_557_6892)"/>
<path d="M92.1902 133.629C95.1736 130.738 99.9338 130.822 102.822 133.816C105.71 136.811 105.633 141.582 102.65 144.473C99.6662 147.364 94.906 147.28 92.0178 144.286C89.1298 141.291 89.2069 136.52 92.1902 133.629Z" fill="url(#paint4_linear_557_6892)"/>
<path d="M163.168 14.5238C167.128 14.5238 170.339 17.7342 170.339 21.694C170.338 25.6536 167.128 28.8634 163.168 28.8634C159.209 28.8633 155.999 25.6536 155.999 21.694C155.999 17.7343 159.209 14.5239 163.168 14.5238Z" fill="url(#paint5_linear_557_6892)"/>
<path d="M184.677 0.78125C189.627 0.781423 193.639 4.79373 193.639 9.7432C193.639 14.6928 189.627 18.7058 184.677 18.7059C179.728 18.7059 175.715 14.6929 175.715 9.7432C175.715 4.79362 179.728 0.78125 184.677 0.78125Z" fill="url(#paint6_linear_557_6892)"/>
<defs>
<linearGradient id="paint0_linear_557_6892" x1="120.395" y1="-17.2056" x2="-21.6153" y2="254.177" gradientUnits="userSpaceOnUse">
<stop stop-color="#2977D1"/>
<stop offset="0.705291" stop-color="#1A4C84"/>
</linearGradient>
<linearGradient id="paint1_linear_557_6892" x1="120.395" y1="-17.2056" x2="-21.6153" y2="254.177" gradientUnits="userSpaceOnUse">
<stop stop-color="#2977D1"/>
<stop offset="0.705291" stop-color="#1A4C84"/>
</linearGradient>
<linearGradient id="paint2_linear_557_6892" x1="120.395" y1="-17.2056" x2="-21.6153" y2="254.177" gradientUnits="userSpaceOnUse">
<stop stop-color="#2977D1"/>
<stop offset="0.705291" stop-color="#1A4C84"/>
</linearGradient>
<linearGradient id="paint3_linear_557_6892" x1="120.395" y1="-17.2056" x2="-21.6153" y2="254.177" gradientUnits="userSpaceOnUse">
<stop stop-color="#2977D1"/>
<stop offset="0.705291" stop-color="#1A4C84"/>
</linearGradient>
<linearGradient id="paint4_linear_557_6892" x1="120.395" y1="-17.2056" x2="-21.6153" y2="254.177" gradientUnits="userSpaceOnUse">
<stop stop-color="#2977D1"/>
<stop offset="0.705291" stop-color="#1A4C84"/>
</linearGradient>
<linearGradient id="paint5_linear_557_6892" x1="120.395" y1="-17.2056" x2="-21.6153" y2="254.177" gradientUnits="userSpaceOnUse">
<stop stop-color="#2977D1"/>
<stop offset="0.705291" stop-color="#1A4C84"/>
</linearGradient>
<linearGradient id="paint6_linear_557_6892" x1="120.395" y1="-17.2056" x2="-21.6153" y2="254.177" gradientUnits="userSpaceOnUse">
<stop stop-color="#2977D1"/>
<stop offset="0.705291" stop-color="#1A4C84"/>
</linearGradient>
</defs>
</svg>
