<svg width="412" height="287" viewBox="0 0 412 287" fill="none" xmlns="http://www.w3.org/2000/svg">
<path d="M16.0297 232.466C16.6618 232.351 17.6675 232.207 19.0466 232.035C20.4258 231.805 21.7474 231.69 23.0117 231.69C24.3333 231.69 25.4826 231.805 26.4595 232.035C27.4939 232.207 28.3559 232.552 29.0454 233.069C29.735 233.587 30.2522 234.305 30.597 235.224C30.9418 236.144 31.1141 237.35 31.1141 238.845V270.737C31.1141 275.852 29.6488 279.702 26.7181 282.288C23.7874 284.816 19.4776 286.08 13.7886 286.08C10.8005 286.08 8.38696 285.621 6.5481 284.701C5.22641 284.069 4.24952 283.207 3.61741 282.115C3.04276 281.023 2.75544 279.788 2.75544 278.409C2.75544 277.26 2.8991 276.254 3.18643 275.392C3.53121 274.53 3.93346 273.84 4.39318 273.323C5.485 273.553 6.40444 273.725 7.15147 273.84C7.95598 273.898 8.81794 273.927 9.73737 273.927C11.9785 273.927 13.5875 273.381 14.5644 272.289C15.5413 271.14 16.0297 269.473 16.0297 267.289V232.466ZM80.8591 263.755C80.8591 267.318 80.3131 270.507 79.2213 273.323C78.1295 276.082 76.578 278.409 74.5667 280.305C72.6129 282.201 70.2569 283.638 67.4986 284.615C64.7403 285.592 61.6659 286.08 58.2755 286.08C54.8851 286.08 51.8108 285.563 49.0525 284.529C46.2942 283.494 43.9094 282.029 41.8982 280.133C39.9444 278.179 38.4216 275.823 37.3297 273.065C36.2379 270.306 35.692 267.203 35.692 263.755C35.692 260.365 36.2379 257.291 37.3297 254.532C38.4216 251.774 39.9444 249.447 41.8982 247.55C43.9094 245.597 46.2942 244.103 49.0525 243.068C51.8108 242.034 54.8851 241.517 58.2755 241.517C61.6659 241.517 64.7403 242.063 67.4986 243.154C70.2569 244.189 72.6129 245.683 74.5667 247.637C76.578 249.533 78.1295 251.86 79.2213 254.619C80.3131 257.377 80.8591 260.422 80.8591 263.755ZM50.6902 263.755C50.6902 267.261 51.3511 269.962 52.6727 271.858C54.0519 273.697 55.9482 274.616 58.3617 274.616C60.7752 274.616 62.6141 273.668 63.8783 271.772C65.2 269.875 65.8608 267.203 65.8608 263.755C65.8608 260.308 65.2 257.664 63.8783 255.825C62.5566 253.929 60.689 252.981 58.2755 252.981C55.862 252.981 53.9944 253.929 52.6727 255.825C51.3511 257.664 50.6902 260.308 50.6902 263.755ZM84.7325 228.587C85.3072 228.415 86.2266 228.242 87.4908 228.07C88.755 227.84 90.048 227.725 91.3697 227.725C92.6339 227.725 93.7544 227.811 94.7313 227.984C95.7657 228.156 96.6277 228.501 97.3172 229.018C98.0068 229.535 98.524 230.254 98.8688 231.173C99.2136 232.035 99.386 233.184 99.386 234.621V243.068C100.823 242.494 102.173 242.091 103.437 241.861C104.759 241.632 106.195 241.517 107.747 241.517C110.505 241.517 113.12 242.005 115.591 242.982C118.062 243.959 120.246 245.395 122.142 247.292C124.038 249.131 125.532 251.429 126.624 254.188C127.716 256.946 128.262 260.135 128.262 263.755C128.262 267.491 127.687 270.766 126.538 273.582C125.446 276.34 123.895 278.639 121.883 280.478C119.872 282.316 117.401 283.724 114.47 284.701C111.597 285.621 108.408 286.08 104.903 286.08C101.11 286.08 97.8919 285.621 95.2485 284.701C92.6051 283.839 90.364 282.747 88.5252 281.426C85.9967 279.644 84.7325 277.346 84.7325 274.53V228.587ZM104.903 274.53C107.546 274.53 109.586 273.639 111.023 271.858C112.517 270.019 113.264 267.318 113.264 263.755C113.264 260.135 112.517 257.434 111.023 255.653C109.528 253.871 107.517 252.981 104.989 252.981C103.839 252.981 102.834 253.096 101.972 253.326C101.167 253.555 100.277 253.9 99.2998 254.36V273.151C99.9319 273.553 100.679 273.898 101.541 274.185C102.46 274.415 103.581 274.53 104.903 274.53ZM173.415 238.069C173.415 238.816 173.157 239.505 172.64 240.137C172.18 240.712 171.634 241.143 171.002 241.43C169.565 240.396 167.813 239.419 165.744 238.5C163.733 237.58 161.118 237.121 157.9 237.121C154.395 237.121 151.234 237.925 148.418 239.534C145.66 241.143 143.448 243.557 141.781 246.775C140.172 249.935 139.368 253.871 139.368 258.584C139.368 265.652 141.092 270.967 144.54 274.53C148.045 278.093 152.585 279.874 158.159 279.874C161.147 279.874 163.761 279.443 166.003 278.581C168.244 277.719 170.082 276.742 171.519 275.651C172.094 275.88 172.64 276.311 173.157 276.943C173.674 277.518 173.933 278.208 173.933 279.012C173.933 279.587 173.76 280.161 173.415 280.736C173.128 281.253 172.611 281.77 171.864 282.288C170.542 283.207 168.732 284.012 166.433 284.701C164.135 285.448 161.204 285.822 157.641 285.822C152.872 285.822 148.533 284.816 144.626 282.805C140.776 280.736 137.73 277.691 135.489 273.668C133.248 269.645 132.127 264.617 132.127 258.584C132.127 252.55 133.277 247.493 135.575 243.413C137.931 239.333 141.005 236.287 144.798 234.276C148.648 232.207 152.843 231.173 157.383 231.173C160.543 231.173 163.33 231.518 165.744 232.207C168.157 232.897 170.025 233.788 171.347 234.879C172.726 235.914 173.415 236.977 173.415 238.069ZM215.729 267.548H208.833V259.618C208.833 256.17 207.856 253.613 205.902 251.946C204.006 250.28 201.535 249.447 198.489 249.447C196.248 249.447 194.151 249.878 192.197 250.74C190.301 251.602 188.692 252.636 187.37 253.843L186.077 248.24C187.456 247.263 189.266 246.286 191.507 245.309C193.806 244.275 196.449 243.758 199.437 243.758C204.207 243.758 208.115 245.051 211.16 247.637C214.206 250.223 215.729 254.159 215.729 259.446V267.548ZM181.336 261.945H188.232V284.529C187.944 284.644 187.514 284.759 186.939 284.874C186.364 285.046 185.732 285.132 185.043 285.132C183.836 285.132 182.916 284.902 182.284 284.443C181.652 283.925 181.336 283.121 181.336 282.029V261.945ZM208.833 262.031L215.729 262.118V284.529C215.441 284.644 214.982 284.759 214.349 284.874C213.775 285.046 213.171 285.132 212.539 285.132C211.275 285.132 210.327 284.902 209.695 284.443C209.12 283.925 208.833 283.121 208.833 282.029V262.031ZM188.232 265.307H181.336V228.846C181.623 228.731 182.054 228.616 182.629 228.501C183.261 228.329 183.922 228.242 184.612 228.242C185.818 228.242 186.709 228.501 187.284 229.018C187.916 229.478 188.232 230.254 188.232 231.345V265.307ZM227.691 269.186L227.346 263.755L253.378 260.221C253.148 257.061 252.056 254.475 250.102 252.464C248.148 250.395 245.448 249.361 242 249.361C238.437 249.361 235.477 250.653 233.121 253.239C230.823 255.768 229.674 259.417 229.674 264.186V266.083C230.076 270.68 231.57 274.185 234.156 276.599C236.799 278.955 240.391 280.133 244.93 280.133C247.344 280.133 249.528 279.73 251.481 278.926C253.435 278.121 254.987 277.26 256.136 276.34C256.768 276.742 257.257 277.231 257.601 277.805C258.004 278.323 258.205 278.926 258.205 279.616C258.205 280.707 257.573 281.742 256.308 282.719C255.102 283.638 253.464 284.385 251.395 284.96C249.384 285.534 247.114 285.822 244.586 285.822C240.161 285.822 236.311 285.017 233.035 283.408C229.817 281.799 227.318 279.414 225.536 276.254C223.812 273.036 222.95 269.128 222.95 264.531C222.95 261.256 223.41 258.354 224.329 255.825C225.306 253.239 226.628 251.056 228.294 249.274C230.018 247.493 232.058 246.143 234.414 245.223C236.77 244.246 239.328 243.758 242.086 243.758C245.591 243.758 248.666 244.505 251.309 245.999C254.01 247.493 256.107 249.59 257.601 252.291C259.153 254.935 259.929 257.98 259.929 261.428C259.929 262.692 259.641 263.612 259.067 264.186C258.492 264.704 257.687 265.02 256.653 265.135L227.691 269.186ZM298.593 257.118V267.031H291.697V257.635C291.697 254.82 290.864 252.751 289.197 251.429C287.588 250.108 285.433 249.447 282.732 249.447C280.951 249.447 279.227 249.734 277.561 250.309C275.894 250.883 274.486 251.544 273.337 252.291V267.031H266.441V252.636C266.441 251.487 266.671 250.51 267.131 249.705C267.648 248.901 268.51 248.125 269.717 247.378C271.268 246.401 273.222 245.568 275.578 244.878C277.992 244.131 280.405 243.758 282.819 243.758C285.749 243.758 288.335 244.217 290.576 245.137C292.817 245.999 294.484 247.206 295.576 248.757C295.92 249.102 296.208 249.418 296.438 249.705C296.667 249.993 296.897 250.366 297.127 250.826C297.529 251.515 297.874 252.406 298.162 253.498C298.449 254.59 298.593 255.797 298.593 257.118ZM323.848 257.291V267.031H316.952V257.635C316.952 254.82 316.148 252.751 314.539 251.429C312.93 250.108 310.775 249.447 308.074 249.447C306.063 249.447 304.109 249.878 302.213 250.74C300.374 251.544 298.707 252.722 297.213 254.274L294.455 249.274C295.949 247.78 297.903 246.487 300.316 245.395C302.73 244.304 305.488 243.758 308.591 243.758C311.694 243.758 314.367 244.246 316.608 245.223C318.906 246.2 320.688 247.694 321.952 249.705C323.216 251.717 323.848 254.245 323.848 257.291ZM266.441 262.462H273.337V284.529C273.05 284.644 272.619 284.759 272.044 284.874C271.469 285.046 270.837 285.132 270.148 285.132C268.941 285.132 268.021 284.902 267.389 284.443C266.757 283.925 266.441 283.121 266.441 282.029V262.462ZM291.697 262.462H298.593V284.529C298.305 284.644 297.845 284.759 297.213 284.874C296.639 285.046 296.035 285.132 295.403 285.132C294.139 285.132 293.191 284.902 292.559 284.443C291.984 283.925 291.697 283.121 291.697 282.029V262.462ZM316.952 262.462H323.848V284.529C323.561 284.644 323.101 284.759 322.469 284.874C321.894 285.046 321.291 285.132 320.659 285.132C319.395 285.132 318.446 284.902 317.814 284.443C317.24 283.925 316.952 283.121 316.952 282.029V262.462ZM332.761 232.294C332.761 231.087 333.192 230.081 334.054 229.277C334.916 228.415 335.979 227.984 337.244 227.984C338.565 227.984 339.628 228.415 340.433 229.277C341.237 230.081 341.64 231.087 341.64 232.294C341.64 233.5 341.237 234.535 340.433 235.397C339.628 236.201 338.565 236.603 337.244 236.603C335.979 236.603 334.916 236.201 334.054 235.397C333.192 234.535 332.761 233.5 332.761 232.294ZM333.796 261.945H340.692V284.529C340.404 284.644 339.973 284.759 339.399 284.874C338.824 285.046 338.192 285.132 337.502 285.132C336.295 285.132 335.376 284.902 334.744 284.443C334.112 283.925 333.796 283.121 333.796 282.029V261.945ZM340.692 265.307H333.796V245.051C334.083 244.936 334.514 244.821 335.089 244.706C335.721 244.534 336.382 244.447 337.071 244.447C338.278 244.447 339.169 244.706 339.743 245.223C340.375 245.683 340.692 246.487 340.692 247.637V265.307ZM378.809 274.099C378.809 277.777 377.458 280.65 374.757 282.719C372.057 284.787 368.149 285.822 363.035 285.822C358.667 285.822 355.105 285.161 352.346 283.839C349.588 282.46 348.209 280.966 348.209 279.357C348.209 278.667 348.381 278.007 348.726 277.374C349.128 276.685 349.703 276.139 350.45 275.737C352.001 276.829 353.812 277.834 355.88 278.754C357.949 279.673 360.305 280.133 362.948 280.133C368.925 280.133 371.913 278.121 371.913 274.099C371.913 272.433 371.396 271.082 370.361 270.048C369.384 268.956 367.919 268.18 365.965 267.72L358.811 265.824C355.306 264.962 352.748 263.64 351.139 261.859C349.53 260.02 348.726 257.75 348.726 255.05C348.726 252.004 349.961 249.361 352.432 247.119C354.903 244.878 358.667 243.758 363.724 243.758C366.425 243.758 368.781 244.045 370.792 244.62C372.804 245.137 374.355 245.855 375.447 246.775C376.596 247.637 377.171 248.585 377.171 249.619C377.171 250.366 376.97 251.027 376.567 251.602C376.223 252.176 375.734 252.607 375.102 252.895C374.413 252.435 373.522 251.946 372.43 251.429C371.396 250.855 370.16 250.395 368.724 250.05C367.287 249.648 365.707 249.447 363.983 249.447C361.454 249.447 359.414 249.935 357.863 250.912C356.311 251.889 355.536 253.268 355.536 255.05C355.536 256.314 355.966 257.434 356.828 258.411C357.748 259.331 359.185 260.02 361.138 260.48L367.086 261.945C370.993 262.865 373.924 264.33 375.878 266.341C377.832 268.295 378.809 270.881 378.809 274.099ZM385.9 261.945H392.795V273.84C392.795 276.139 393.456 277.777 394.778 278.754C396.1 279.673 397.91 280.133 400.208 280.133C401.185 280.133 402.277 279.96 403.484 279.616C404.691 279.271 405.696 278.869 406.501 278.409C406.845 278.754 407.161 279.185 407.449 279.702C407.736 280.219 407.88 280.822 407.88 281.512C407.88 282.776 407.133 283.81 405.639 284.615C404.145 285.419 402.076 285.822 399.433 285.822C395.41 285.822 392.135 284.931 389.606 283.15C387.135 281.368 385.9 278.409 385.9 274.271V261.945ZM389.434 251.429V245.74H406.932C407.104 245.97 407.276 246.344 407.449 246.861C407.621 247.378 407.707 247.924 407.707 248.499C407.707 249.418 407.478 250.136 407.018 250.653C406.558 251.171 405.926 251.429 405.122 251.429H389.434ZM392.795 264.531H385.9V233.328C386.187 233.213 386.618 233.098 387.193 232.983C387.825 232.811 388.486 232.725 389.175 232.725C390.382 232.725 391.273 232.983 391.847 233.5C392.479 233.96 392.795 234.736 392.795 235.828V264.531Z" fill="white"/>
<path d="M218.892 12.3278C218.892 8.25933 223.677 6.07827 226.748 8.74712L252.411 31.055C252.94 29.7908 254.189 28.9025 255.645 28.9025C257.58 28.9026 259.148 30.4711 259.148 32.4058C259.148 33.6879 258.459 34.808 257.431 35.4186L275.445 51.0773C276.481 51.9782 277.076 53.2841 277.076 54.6574V132.377C277.076 135.741 277.037 138.965 276.617 142.214C271.748 179.986 239.468 209.17 200.371 209.171C167.661 209.171 139.722 188.744 128.615 159.952C127.142 156.133 130.121 152.242 134.214 152.242H147.685C150.703 152.242 153.348 154.173 154.63 156.905C162.223 173.086 177.842 183.227 199.177 183.227C220.456 183.227 239.652 170.402 246.613 151.062C248.849 144.847 244.608 138.048 238.214 136.394C236.339 135.909 234.435 135.583 232.501 135.583H225.754C218.92 135.583 212.471 138.199 207.06 142.377C204.874 144.065 202.134 145.069 199.156 145.069C191.867 145.069 185.98 139.057 186.186 131.72C186.213 130.773 186.347 129.847 186.575 128.957C187.013 127.101 187.868 125.313 189.152 123.738C192.318 119.856 197.259 118.289 201.843 119.245C205.098 119.925 208.45 118.645 210.552 116.068L210.787 115.78C212.521 113.654 213.102 110.874 212.645 108.163C212.319 106.23 212.795 104.174 214.13 102.537C216.632 99.469 221.184 99.0681 224.192 101.693C227.01 104.152 227.387 108.554 225.031 111.455C223.653 113.153 221.651 114.036 219.627 114.047C216.865 114.062 214.297 115.474 212.55 117.616L212.505 117.67C212.13 118.13 211.806 118.619 211.533 119.13C210.001 122.003 212.113 125.239 215.132 126.458C218.539 127.833 222.163 128.606 225.901 128.606H232.501C234.372 128.606 236.196 128.363 237.989 127.966C244.21 126.591 247.835 119.946 245.864 113.887C241.543 100.597 232.97 89.6275 218.892 84.3445V12.3278Z" fill="url(#paint0_linear_557_6954)"/>
<path d="M189.986 157.138C192.078 155.31 195.255 155.53 197.081 157.63C198.907 159.729 198.691 162.913 196.599 164.741C194.507 166.569 191.33 166.348 189.504 164.249C187.678 162.149 187.894 158.966 189.986 157.138Z" fill="url(#paint1_linear_557_6954)"/>
<path d="M156.01 98.5511C159.213 94.8615 164.954 94.3756 168.743 97.4678C170.959 99.2769 172.114 101.903 172.132 104.557C172.156 108.176 174.003 111.545 176.8 113.838L176.871 113.896C180.28 116.692 184.942 117.352 189.003 115.655C193.982 113.575 199.811 113.945 204.576 116.955C203.837 117.071 203.077 117.057 202.326 116.9C196.693 115.724 190.935 117.763 187.3 122.22C184.212 126.006 183.102 131.099 184.33 135.842C185.21 139.24 187.254 142.269 190.086 144.37C193.075 146.587 196.794 147.628 200.556 147.301C201.035 147.259 201.509 147.195 201.976 147.111C196.41 149.376 189.809 148.6 184.826 144.514C179.757 140.358 177.704 133.88 178.944 127.874C179.824 123.609 178.15 119.213 174.784 116.453L174.408 116.145C171.631 113.868 168.004 113.102 164.469 113.696C161.948 114.12 159.265 113.493 157.128 111.742C153.121 108.456 152.591 102.49 156.01 98.5511Z" fill="url(#paint2_linear_557_6954)"/>
<path d="M158.722 125.004C161.647 122.996 165.644 123.747 167.651 126.682C169.657 129.616 168.913 133.622 165.989 135.63C163.064 137.637 159.066 136.885 157.06 133.951C155.053 131.017 155.798 127.011 158.722 125.004Z" fill="url(#paint3_linear_557_6954)"/>
<path d="M195.741 97.3676C197.927 95.2487 201.416 95.3101 203.533 97.5048C205.65 99.6994 205.593 103.196 203.407 105.315C201.22 107.434 197.731 107.373 195.615 105.178C193.498 102.983 193.554 99.4866 195.741 97.3676Z" fill="url(#paint4_linear_557_6954)"/>
<path d="M247.763 10.0723C250.665 10.0723 253.018 12.4253 253.018 15.3275C253.018 18.2296 250.665 20.5822 247.763 20.5822C244.861 20.5821 242.508 18.2296 242.508 15.3275C242.508 12.4253 244.86 10.0724 247.763 10.0723Z" fill="url(#paint5_linear_557_6954)"/>
<path d="M263.527 0C267.155 0.00012672 270.095 2.94085 270.096 6.56844C270.096 10.1961 267.155 13.1373 263.527 13.1375C259.899 13.1375 256.958 10.1962 256.958 6.56844C256.958 2.94077 259.899 0 263.527 0Z" fill="url(#paint6_linear_557_6954)"/>
<defs>
<linearGradient id="paint0_linear_557_6954" x1="216.413" y1="-13.183" x2="112.33" y2="185.72" gradientUnits="userSpaceOnUse">
<stop stop-color="#DBFF4D"/>
<stop offset="1" stop-color="#87A800"/>
</linearGradient>
<linearGradient id="paint1_linear_557_6954" x1="216.413" y1="-13.183" x2="112.33" y2="185.72" gradientUnits="userSpaceOnUse">
<stop stop-color="#DBFF4D"/>
<stop offset="1" stop-color="#87A800"/>
</linearGradient>
<linearGradient id="paint2_linear_557_6954" x1="216.413" y1="-13.183" x2="112.33" y2="185.72" gradientUnits="userSpaceOnUse">
<stop stop-color="#DBFF4D"/>
<stop offset="1" stop-color="#87A800"/>
</linearGradient>
<linearGradient id="paint3_linear_557_6954" x1="216.413" y1="-13.183" x2="112.33" y2="185.72" gradientUnits="userSpaceOnUse">
<stop stop-color="#DBFF4D"/>
<stop offset="1" stop-color="#87A800"/>
</linearGradient>
<linearGradient id="paint4_linear_557_6954" x1="216.413" y1="-13.183" x2="112.33" y2="185.72" gradientUnits="userSpaceOnUse">
<stop stop-color="#DBFF4D"/>
<stop offset="1" stop-color="#87A800"/>
</linearGradient>
<linearGradient id="paint5_linear_557_6954" x1="216.413" y1="-13.183" x2="112.33" y2="185.72" gradientUnits="userSpaceOnUse">
<stop stop-color="#DBFF4D"/>
<stop offset="1" stop-color="#87A800"/>
</linearGradient>
<linearGradient id="paint6_linear_557_6954" x1="216.413" y1="-13.183" x2="112.33" y2="185.72" gradientUnits="userSpaceOnUse">
<stop stop-color="#DBFF4D"/>
<stop offset="1" stop-color="#87A800"/>
</linearGradient>
</defs>
</svg>
