<svg width="204" height="287" viewBox="0 0 204 287" fill="none" xmlns="http://www.w3.org/2000/svg">
<path d="M123.695 17.6012C123.695 12.0502 130.225 9.07441 134.414 12.7158L169.429 43.1526C170.15 41.4277 171.854 40.2157 173.841 40.2157C176.481 40.2158 178.621 42.3558 178.621 44.9956C178.621 46.7449 177.68 48.2731 176.278 49.1062L200.856 70.4708C202.27 71.7001 203.081 73.4818 203.081 75.3555V181.396C203.081 185.986 203.028 190.384 202.456 194.818C195.812 246.354 151.77 286.172 98.4251 286.173C53.7965 286.173 15.677 258.303 0.521391 219.018C-1.48825 213.809 2.57742 208.5 8.16125 208.5H26.5409C30.6594 208.5 34.2669 211.134 36.0167 214.862C46.3772 236.94 67.6864 250.775 96.7964 250.775C125.829 250.775 152.02 233.277 161.517 206.889C164.569 198.41 158.782 189.133 150.058 186.876C147.5 186.214 144.903 185.771 142.264 185.771H133.058C123.733 185.771 114.935 189.34 107.552 195.039C104.57 197.342 100.831 198.713 96.7677 198.713C86.8221 198.713 78.7904 190.51 79.072 180.499C79.1084 179.207 79.2908 177.944 79.6022 176.729C80.2004 174.197 81.3659 171.758 83.119 169.608C87.4383 164.312 94.1797 162.174 100.434 163.479C104.875 164.406 109.448 162.66 112.317 159.143L112.637 158.751C115.003 155.85 115.796 152.057 115.172 148.358C114.728 145.721 115.377 142.915 117.198 140.683C120.612 136.496 126.822 135.949 130.927 139.531C134.772 142.886 135.286 148.892 132.072 152.85C130.192 155.166 127.46 156.372 124.698 156.387C120.93 156.407 117.425 158.334 115.042 161.256L114.981 161.33C114.47 161.957 114.027 162.625 113.655 163.322C111.565 167.241 114.446 171.657 118.565 173.32C123.214 175.197 128.159 176.25 133.259 176.25H142.264C144.816 176.25 147.306 175.919 149.751 175.378C158.24 173.501 163.185 164.435 160.497 156.168C154.601 138.036 142.903 123.069 123.695 115.861V17.6012Z" fill="url(#paint0_linear_557_6959)"/>
<path d="M84.2563 215.18C87.1108 212.686 91.4447 212.986 93.9364 215.85C96.4279 218.715 96.1339 223.059 93.2796 225.553C90.4251 228.047 86.0904 227.746 83.5988 224.881C81.1074 222.017 81.4022 217.673 84.2563 215.18Z" fill="url(#paint1_linear_557_6959)"/>
<path d="M37.8993 135.244C42.2695 130.21 50.1028 129.547 55.2721 133.766C58.2961 136.234 59.8716 139.818 59.8959 143.438C59.929 148.376 62.4497 152.973 66.2649 156.101L66.3619 156.181C71.0138 159.995 77.3745 160.895 82.9156 158.58C89.709 155.742 97.6611 156.248 104.162 160.354C103.154 160.512 102.117 160.493 101.093 160.279C93.4072 158.675 85.5513 161.456 80.5913 167.538C76.3786 172.703 74.8643 179.651 76.5396 186.123C77.7401 190.76 80.5286 194.892 84.3922 197.759C88.4708 200.784 93.5447 202.204 98.6782 201.758C99.331 201.701 99.9775 201.613 100.616 201.498C93.0207 204.59 84.0154 203.53 77.2158 197.955C70.3004 192.285 67.4983 183.446 69.1901 175.252C70.3917 169.433 68.1075 163.435 63.5144 159.669L63.0012 159.249C59.2126 156.143 54.264 155.097 49.441 155.908C46.002 156.486 42.3404 155.631 39.4256 153.241C33.9584 148.758 33.2344 140.618 37.8993 135.244Z" fill="url(#paint2_linear_557_6959)"/>
<path d="M41.6001 171.336C45.5905 168.597 51.0445 169.621 53.7823 173.625C56.5199 177.628 55.505 183.094 51.5146 185.833C47.5242 188.572 42.0694 187.547 39.3317 183.543C36.5943 179.54 37.6101 174.075 41.6001 171.336Z" fill="url(#paint3_linear_557_6959)"/>
<path d="M92.1081 133.629C95.0916 130.738 99.8517 130.822 102.74 133.816C105.628 136.811 105.551 141.582 102.568 144.473C99.5842 147.364 94.824 147.28 91.9358 144.286C89.0478 141.291 89.1249 136.52 92.1081 133.629Z" fill="url(#paint4_linear_557_6959)"/>
<path d="M163.086 14.5238C167.046 14.5238 170.257 17.7342 170.257 21.694C170.256 25.6536 167.046 28.8634 163.086 28.8634C159.127 28.8633 155.917 25.6536 155.917 21.694C155.917 17.7343 159.127 14.5239 163.086 14.5238Z" fill="url(#paint5_linear_557_6959)"/>
<path d="M184.595 0.78125C189.545 0.781423 193.557 4.79373 193.557 9.7432C193.557 14.6928 189.545 18.7058 184.595 18.7059C179.646 18.7059 175.633 14.6929 175.633 9.7432C175.633 4.79362 179.646 0.78125 184.595 0.78125Z" fill="url(#paint6_linear_557_6959)"/>
<defs>
<linearGradient id="paint0_linear_557_6959" x1="120.313" y1="-17.2056" x2="-21.6973" y2="254.177" gradientUnits="userSpaceOnUse">
<stop stop-color="#2977D1"/>
<stop offset="0.705291" stop-color="#1A4C84"/>
</linearGradient>
<linearGradient id="paint1_linear_557_6959" x1="120.313" y1="-17.2056" x2="-21.6973" y2="254.177" gradientUnits="userSpaceOnUse">
<stop stop-color="#2977D1"/>
<stop offset="0.705291" stop-color="#1A4C84"/>
</linearGradient>
<linearGradient id="paint2_linear_557_6959" x1="120.313" y1="-17.2056" x2="-21.6973" y2="254.177" gradientUnits="userSpaceOnUse">
<stop stop-color="#2977D1"/>
<stop offset="0.705291" stop-color="#1A4C84"/>
</linearGradient>
<linearGradient id="paint3_linear_557_6959" x1="120.313" y1="-17.2056" x2="-21.6973" y2="254.177" gradientUnits="userSpaceOnUse">
<stop stop-color="#2977D1"/>
<stop offset="0.705291" stop-color="#1A4C84"/>
</linearGradient>
<linearGradient id="paint4_linear_557_6959" x1="120.313" y1="-17.2056" x2="-21.6973" y2="254.177" gradientUnits="userSpaceOnUse">
<stop stop-color="#2977D1"/>
<stop offset="0.705291" stop-color="#1A4C84"/>
</linearGradient>
<linearGradient id="paint5_linear_557_6959" x1="120.313" y1="-17.2056" x2="-21.6973" y2="254.177" gradientUnits="userSpaceOnUse">
<stop stop-color="#2977D1"/>
<stop offset="0.705291" stop-color="#1A4C84"/>
</linearGradient>
<linearGradient id="paint6_linear_557_6959" x1="120.313" y1="-17.2056" x2="-21.6973" y2="254.177" gradientUnits="userSpaceOnUse">
<stop stop-color="#2977D1"/>
<stop offset="0.705291" stop-color="#1A4C84"/>
</linearGradient>
</defs>
</svg>
